<svg width="89" height="76" viewBox="0 0 89 76" fill="none" xmlns="http://www.w3.org/2000/svg">
<path d="M68.0191 31.4862C67.4101 28.5116 65.6535 21.2919 61.9411 14.8802C61.9587 14.8158 61.9763 14.7572 61.9938 14.6928C62.269 13.6798 62.3861 12.6551 62.3393 11.6656C62.2983 10.7755 62.1227 9.97919 61.865 9.30581C61.6249 8.68513 61.3029 8.14643 60.9281 7.70728C60.571 7.29154 60.1611 6.95192 59.7161 6.706C59.2828 6.46592 58.7968 6.30197 58.2698 6.23756C57.7486 6.17315 57.2216 6.20243 56.7005 6.31954C56.2204 6.42493 55.7402 6.61231 55.2659 6.86409C55.1313 6.7587 54.9966 6.6533 54.8561 6.5479C51.1554 3.47965 47.1737 0.80957 44.5153 0.80957C41.7047 0.80957 37.6001 3.67288 33.9346 6.81725C33.4896 6.58889 33.0328 6.41322 32.582 6.31368C32.0608 6.19657 31.5338 6.1673 31.0127 6.23171C30.4857 6.29612 30.0056 6.46007 29.5664 6.70014C29.1155 6.94607 28.7057 7.28568 28.3543 7.70142C27.9796 8.14058 27.6575 8.67928 27.4175 9.29995C27.154 9.97333 26.9842 10.7638 26.9432 11.6597C26.8963 12.6493 27.0134 13.674 27.2887 14.687C27.3062 14.7514 27.3238 14.8099 27.3413 14.8743C23.629 21.286 21.8724 28.5058 21.2634 31.4804C20.9999 32.3001 20.8652 33.1374 20.8652 33.9982C20.8652 40.0878 27.722 45.2523 37.2195 47.0558C39.7315 47.6648 42.8173 48.303 44.732 48.303C46.7873 48.303 50.0195 47.6004 52.4729 46.9797C61.7655 45.1118 68.4348 40.0059 68.4348 33.9982C68.4348 33.1374 68.2943 32.2943 68.0366 31.4804L68.0191 31.4862Z" fill="white"/>
<path d="M59.1014 28.9393C55.7521 27.2939 50.5407 26.1052 44.6911 26.1052C44.6794 26.1052 44.6736 26.1052 44.6619 26.1052C44.6502 26.1052 44.6443 26.1052 44.6326 26.1052C38.5195 26.1052 33.1091 27.3993 29.7891 29.1618C29.7832 29.1852 29.7773 29.2028 29.7773 29.2028C29.7773 29.2028 32.5411 31.7323 33.8469 32.4994C35.1526 33.2664 36.312 33.8754 38.42 32.7219C39.9014 31.9138 41.2306 30.8071 42.8115 30.3504C43.2683 30.3211 43.766 30.2684 44.3047 30.1923C44.4218 30.1748 44.5389 30.163 44.656 30.1572C44.7731 30.1689 44.8902 30.1748 45.0073 30.1923C45.546 30.2684 46.0437 30.3211 46.5005 30.3504C48.0814 30.8071 49.4106 31.9138 50.892 32.7219C53.0059 33.8754 54.1594 33.2723 55.4651 32.4994C56.6772 31.785 59.1307 29.5716 59.4937 29.2437C59.3649 29.1383 59.2361 29.0388 59.1014 28.9393Z" fill="#F99B28"/>
<path d="M44.7379 35.7783C44.7379 35.7783 44.7027 35.7959 44.6383 35.831C44.5739 35.7959 44.5388 35.7783 44.5388 35.7783C44.5388 35.7783 39.3918 35.7783 39.5968 38.1498C39.8017 40.5212 41.6403 42.8458 44.4978 43.0098C44.4978 43.0098 44.5036 43.0098 44.5095 43.0098C44.5505 43.0098 44.5973 43.0098 44.6383 43.0098C44.6793 43.0098 44.7261 43.0098 44.7671 43.0098C44.7671 43.0098 44.773 43.0098 44.7788 43.0098C47.6363 42.8458 49.4749 40.5212 49.6798 38.1498C49.8848 35.7783 44.7379 35.7783 44.7379 35.7783Z" fill="#59209F"/>
<path d="M68.0191 31.4862C67.4101 28.5117 65.6535 21.2919 61.9411 14.8802C61.9587 14.8158 61.9763 14.7572 61.9938 14.6928C62.269 13.6798 62.3861 12.6551 62.3393 11.6656C62.2983 10.7755 62.1227 9.97919 61.865 9.30581C61.6249 8.68514 61.3029 8.14644 60.9281 7.70728C60.571 7.29154 60.1611 6.95193 59.7161 6.706C59.2828 6.46593 58.7968 6.30197 58.2698 6.23757C57.7486 6.17316 57.2216 6.20243 56.7005 6.31954C56.2204 6.42494 55.7402 6.61231 55.2659 6.8641C55.1313 6.7587 54.9966 6.6533 54.8561 6.5479C51.1613 3.48551 47.1796 0.81543 44.5212 0.81543C41.7106 0.81543 37.6059 3.67874 33.9346 6.82311C33.4896 6.59475 33.0328 6.41908 32.582 6.31954C32.0608 6.20243 31.5338 6.17316 31.0127 6.23757C30.4857 6.30197 30.0056 6.46593 29.5664 6.706C29.1155 6.95193 28.7057 7.29154 28.3543 7.70728C27.9796 8.14644 27.6575 8.68514 27.4175 9.30581C27.154 9.97919 26.9842 10.7697 26.9432 11.6656C26.8963 12.6551 27.0134 13.6798 27.2887 14.6928C27.3062 14.7572 27.3238 14.8158 27.3413 14.8802C23.629 21.2919 21.8724 28.5117 21.2634 31.4862C20.9999 32.306 20.8652 33.1433 20.8652 34.0041C20.8652 40.0937 27.722 45.2582 37.2195 47.0617C39.7315 47.6706 42.8173 48.3089 44.732 48.3089C46.7873 48.3089 50.0195 47.6062 52.4729 46.9856C61.7655 45.1177 68.4348 40.0117 68.4348 34.0041C68.4348 33.1433 68.2943 32.3001 68.0366 31.4862H68.0191ZM62.9951 33.032C62.9248 37.4178 53.0116 43.3552 53.0116 43.3552C53.0116 43.3552 48.4034 46.2536 44.6617 46.2536C40.9201 46.2536 36.3177 43.3552 36.3177 43.3552C36.3177 43.3552 26.4045 37.4178 26.3342 33.032C26.3342 33.0203 26.3342 33.0086 26.3342 32.9969C26.3342 30.8304 29.7479 28.5936 34.889 27.2762C34.7836 27.5221 34.7251 27.7914 34.7251 28.0725C34.7251 29.1909 35.6326 30.0926 36.7452 30.0926C37.8577 30.0926 38.7653 29.185 38.7653 28.0725C38.7653 27.4987 38.5252 26.9775 38.1388 26.6086C40.1589 26.2866 42.3488 26.1051 44.6383 26.1051C44.65 26.1051 44.6559 26.1051 44.6676 26.1051C44.6793 26.1051 44.6852 26.1051 44.6969 26.1051C46.9922 26.1051 49.1821 26.2866 51.2081 26.6086C50.7807 26.9775 50.5113 27.5221 50.5113 28.1369C50.5113 29.2553 51.4189 30.157 52.5314 30.157C53.644 30.157 54.5516 29.2494 54.5516 28.1369C54.5516 27.8207 54.4754 27.5162 54.3466 27.2527C59.5404 28.5643 63.001 30.8245 63.001 32.9969C63.001 33.0086 63.001 33.0203 63.001 33.032H62.9951Z" fill="#59209F"/>
<path opacity="0.3" d="M62.9778 32.7568C62.9778 32.7568 62.9778 32.7275 62.9778 32.7158C62.9661 32.6397 62.9544 32.5636 62.931 32.4816C62.931 32.464 62.9251 32.4523 62.9192 32.4347C62.8958 32.3586 62.8724 32.2766 62.8431 32.2005C62.8431 32.1947 62.8431 32.1888 62.8373 32.183C62.808 32.1068 62.7729 32.0307 62.7377 31.9546C62.7377 31.9429 62.726 31.9312 62.7202 31.9195C62.6792 31.8433 62.6382 31.7614 62.5913 31.6852C62.5796 31.6677 62.5738 31.656 62.5621 31.6384C62.5152 31.5623 62.4625 31.4803 62.404 31.4042C62.3981 31.3925 62.3923 31.3866 62.3805 31.3749C62.322 31.2988 62.2634 31.2227 62.199 31.1465C62.1932 31.1407 62.1873 31.1348 62.1815 31.1231C62.117 31.047 62.0409 30.965 61.9648 30.8889C61.9531 30.8772 61.9414 30.8596 61.9238 30.8479C61.8477 30.7718 61.7716 30.6957 61.6837 30.6195C61.672 30.6078 61.6603 30.5961 61.6486 30.5903C61.4729 30.4322 61.2797 30.2741 61.0748 30.1218C61.0631 30.1101 61.0455 30.0984 61.0338 30.0926C60.9342 30.0164 60.8288 29.9462 60.7176 29.8701C60.7059 29.8583 60.6883 29.8525 60.6708 29.8408C60.4424 29.6885 60.1965 29.5363 59.9388 29.3899C59.9271 29.3841 59.9154 29.3782 59.9037 29.3723C59.7749 29.3021 59.646 29.226 59.5114 29.1557C59.4938 29.1498 59.4821 29.1381 59.4645 29.1323C59.324 29.062 59.1835 28.9859 59.0371 28.9156C58.8848 28.8395 58.7326 28.7692 58.5686 28.699C58.5686 28.699 58.5687 28.699 58.5628 28.699C58.4106 28.6287 58.2525 28.5584 58.0885 28.494C58.0768 28.494 58.0592 28.4823 58.0475 28.4765C57.8836 28.4062 57.7196 28.3418 57.5557 28.2774C57.5557 28.2774 57.5498 28.2774 57.5439 28.2774C57.1985 28.1427 56.8413 28.0139 56.4665 27.8909C56.4548 27.8909 56.449 27.8851 56.4373 27.8792C56.2558 27.8148 56.0684 27.7562 55.8751 27.6977C55.8751 27.6977 55.8634 27.6977 55.8576 27.6977C55.4711 27.5747 55.0671 27.4635 54.6572 27.3522C54.6572 27.3522 54.6572 27.3522 54.6514 27.3522C54.4464 27.2995 54.2356 27.2468 54.0248 27.1941C54.019 27.1941 54.0131 27.1941 54.0014 27.1941C53.3632 27.0419 52.7015 26.9013 52.0164 26.7784C52.0106 26.7784 52.0047 26.7784 51.993 26.7784C51.3079 26.6554 50.5994 26.5442 49.8733 26.4563C49.8675 26.4563 49.8616 26.4563 49.8558 26.4563C49.6157 26.4271 49.3698 26.3978 49.1238 26.3744C47.701 26.2221 46.2078 26.1401 44.6737 26.1401C44.662 26.1401 44.6561 26.1401 44.6444 26.1401C44.6327 26.1401 44.6269 26.1401 44.6151 26.1401C36.7396 26.1401 30.0292 28.2891 27.447 30.8186C27.3533 30.9065 27.2713 31.0002 27.1894 31.088C27.1074 31.1758 27.0371 31.2695 26.9669 31.3573C26.9669 31.3573 26.9669 31.3573 26.9669 31.3632C26.7619 31.6325 26.6038 31.9019 26.4926 32.1712C26.4926 32.183 26.4867 32.1888 26.4809 32.2005C26.4516 32.2825 26.4223 32.3645 26.3989 32.4523C26.3989 32.464 26.393 32.4757 26.3872 32.4933C26.3637 32.5753 26.352 32.6572 26.3403 32.7392C26.3403 32.7509 26.3403 32.7626 26.3403 32.7743C26.3286 32.8622 26.3228 32.9442 26.3228 33.032C26.3228 33.0437 26.3228 33.0554 26.3228 33.0671C26.3228 33.1315 26.3228 33.1959 26.3345 33.2603C26.3345 33.2838 26.3345 33.3013 26.3403 33.3248C26.3403 33.3716 26.352 33.4126 26.3579 33.4594C26.3579 33.4829 26.3637 33.5063 26.3696 33.5297C26.3755 33.5707 26.3813 33.6117 26.393 33.6585C26.393 33.6819 26.4047 33.7054 26.4106 33.7288C26.4223 33.7756 26.434 33.8166 26.4457 33.8635C26.4457 33.8869 26.4574 33.9044 26.4633 33.9279C26.4809 33.9923 26.4984 34.0508 26.516 34.1152C26.516 34.1152 26.516 34.1211 26.516 34.127C26.5394 34.1914 26.5628 34.2616 26.5862 34.326C26.5921 34.3436 26.6038 34.367 26.6097 34.3846C26.6272 34.4314 26.6448 34.4783 26.6682 34.531C26.6799 34.5544 26.6916 34.5778 26.6975 34.6012C26.7151 34.6481 26.7385 34.6891 26.7561 34.7359C26.7678 34.7593 26.7795 34.7828 26.7912 34.8062C26.8146 34.853 26.838 34.8999 26.8615 34.9467C26.8732 34.9701 26.8849 34.9877 26.8966 35.0111C26.9317 35.0755 26.961 35.1341 27.002 35.1985C27.002 35.1985 27.002 35.2102 27.0078 35.2161C27.0488 35.2863 27.0898 35.3566 27.1308 35.421C27.1425 35.4386 27.1542 35.4561 27.1601 35.4737C27.1894 35.5264 27.2245 35.5791 27.2596 35.6259C27.2713 35.6494 27.2889 35.6728 27.3065 35.6904C27.3357 35.7372 27.3709 35.784 27.4002 35.8309C27.4177 35.8543 27.4294 35.8777 27.447 35.9012C27.4821 35.948 27.5173 36.0007 27.5524 36.0475C27.5641 36.0651 27.5817 36.0885 27.5934 36.1061C27.6402 36.1705 27.6871 36.2349 27.7398 36.2993C27.7398 36.2993 27.7398 36.3052 27.7456 36.311C27.7983 36.3813 27.8569 36.4516 27.9096 36.5218C27.9213 36.5335 27.9271 36.5452 27.9389 36.557C27.9857 36.6155 28.0325 36.6682 28.0794 36.7268C28.097 36.7443 28.1145 36.7678 28.1262 36.7853C28.1672 36.8322 28.2082 36.8849 28.2551 36.9317C28.2726 36.9551 28.2902 36.9727 28.3077 36.9961C28.3546 37.0488 28.3956 37.0957 28.4424 37.1484C28.46 37.1659 28.4717 37.1835 28.4893 37.2011C28.5478 37.2655 28.6064 37.3299 28.6649 37.3943C28.6649 37.3943 28.6649 37.3943 28.6708 37.4001C28.7352 37.4704 28.8055 37.5407 28.8699 37.6109C28.8757 37.6168 28.8816 37.6227 28.8874 37.6344C28.946 37.6929 29.0045 37.7573 29.0631 37.8159C29.0807 37.8334 29.0982 37.851 29.1099 37.8627C29.1626 37.9154 29.2095 37.9681 29.2622 38.015C29.2798 38.0325 29.2973 38.0501 29.3149 38.0677C29.3676 38.1204 29.4203 38.1731 29.473 38.2199C29.4905 38.2375 29.5023 38.2492 29.5198 38.2667C29.5842 38.3312 29.6545 38.3956 29.7189 38.46C29.795 38.5302 29.8653 38.5947 29.9414 38.6649C29.9414 38.6649 29.9414 38.6649 29.9473 38.6708C30.0175 38.7352 30.0819 38.7937 30.1522 38.8581C30.1698 38.8699 30.1815 38.8874 30.1991 38.8991C30.2576 38.9518 30.3103 38.9987 30.3689 39.0514C30.3864 39.0689 30.404 39.0865 30.4216 39.0982C30.4801 39.1509 30.5328 39.1978 30.5914 39.2446C30.6089 39.2563 30.6206 39.2739 30.6382 39.2856C30.7085 39.3441 30.7787 39.4027 30.849 39.4613C30.849 39.4613 30.849 39.4613 30.8549 39.4671C31.0071 39.5959 31.1535 39.7189 31.3057 39.8419C31.3233 39.8536 31.335 39.8653 31.3526 39.877C31.4111 39.9238 31.4697 39.9707 31.5282 40.0175C31.5458 40.0351 31.5692 40.0468 31.5868 40.0644C31.6453 40.1112 31.698 40.1522 31.7566 40.199C31.7742 40.2108 31.7917 40.2283 31.8093 40.24C31.8737 40.2927 31.9381 40.3396 32.0025 40.3923C32.0084 40.3981 32.0201 40.404 32.026 40.4098C32.1021 40.4684 32.1782 40.5269 32.2485 40.5855C32.3187 40.6382 32.389 40.6968 32.4593 40.7495C32.4768 40.7612 32.4944 40.7729 32.5061 40.7846C32.5588 40.8256 32.6115 40.8666 32.67 40.9076C32.6935 40.9251 32.711 40.9368 32.7345 40.9544C32.7872 40.9895 32.834 41.0305 32.8867 41.0656C32.9101 41.0832 32.9277 41.0949 32.9511 41.1125C33.0038 41.1535 33.0624 41.1945 33.1151 41.2355C33.1268 41.2472 33.1443 41.253 33.1561 41.2647C33.2263 41.3174 33.2966 41.3643 33.361 41.417C33.361 41.417 33.3668 41.417 33.3727 41.4228C33.4371 41.4697 33.4957 41.5107 33.5601 41.5575C33.5835 41.5751 33.6011 41.5868 33.6245 41.6043C33.6655 41.6336 33.7123 41.6688 33.7533 41.698C33.7767 41.7156 33.8001 41.7332 33.8236 41.7507C33.8646 41.78 33.9055 41.8093 33.9465 41.8386C33.97 41.8561 33.9934 41.8737 34.0168 41.8854C34.0578 41.9147 34.0988 41.944 34.1339 41.9674C34.1573 41.985 34.1808 41.9967 34.1983 42.0142C34.2452 42.0435 34.292 42.0786 34.3388 42.1079C34.374 42.1313 34.4091 42.1548 34.4442 42.1782C34.4794 42.2016 34.5087 42.225 34.5379 42.2426C34.5672 42.2602 34.5965 42.2836 34.6258 42.3011C34.6492 42.3187 34.6785 42.3363 34.7019 42.3538C34.7312 42.3714 34.7604 42.3948 34.7897 42.4124C34.8131 42.43 34.8366 42.4417 34.8541 42.4592C34.8834 42.4827 34.9185 42.5002 34.9478 42.5237C34.9654 42.5354 34.9771 42.5471 34.9947 42.5529C35.1645 42.6642 35.3167 42.7637 35.4572 42.8574C35.4572 42.8574 35.4631 42.8574 35.4689 42.8574C35.5041 42.8808 35.5392 42.9043 35.5743 42.9277C33.9758 41.3057 30.89 38.2199 29.754 34.5251C29.391 33.3482 28.8933 31.937 30.4157 30.7952C31.7098 29.8232 37.4774 28.2598 39.8605 27.9202C41.9509 27.6216 43.6666 27.7035 45.6808 28.2247C47.6365 28.7282 50.049 30.7484 50.3593 31.047C52.2155 32.827 54.6924 34.4549 55.0203 36.9727C55.5063 40.6675 50.4999 44.0344 47.3262 45.8788C49.7211 45.2347 51.9579 43.9875 52.7074 43.5425C52.7893 43.4957 52.8479 43.4547 52.8947 43.4312C52.8947 43.4312 52.9064 43.4254 52.9123 43.4195C52.924 43.4137 52.9299 43.4078 52.9416 43.402C52.9474 43.402 52.9533 43.3961 52.9591 43.3903C52.9591 43.3903 52.965 43.3903 52.9709 43.3844L52.9826 43.3785C52.9826 43.3785 62.8958 37.4411 62.9661 33.0554C62.9661 33.0437 62.9661 33.032 62.9661 33.0203C62.9661 32.9383 62.9602 32.8622 62.9485 32.7802L62.9778 32.7568Z" fill="#59209F"/>
<path d="M4.7042 71.9005C3.90786 71.9005 3.18765 71.6838 2.55526 71.2564C1.92287 70.8289 1.4193 70.2375 1.05041 69.4763C0.681519 68.721 0.5 67.8602 0.5 66.8941C0.5 65.9279 0.681519 65.0321 1.04456 64.2826C1.40759 63.5331 1.91116 62.9417 2.5494 62.5142C3.18765 62.0868 3.92543 61.8701 4.76276 61.8701C5.20777 61.8701 5.62351 61.9287 5.99826 62.0516C6.373 62.1746 6.70091 62.3503 6.97611 62.5786C7.25132 62.807 7.49725 63.0705 7.70219 63.3574C7.90713 63.6502 8.07694 63.9605 8.21161 64.3001L7.52067 64.265V62.0692H10.8407V71.7365H7.4504V69.3768L8.19405 69.4119C8.08279 69.7632 7.92469 70.0912 7.7139 70.3898C7.5031 70.6943 7.24546 70.9578 6.94098 71.1803C6.6365 71.4028 6.30274 71.5784 5.93385 71.7073C5.56495 71.8361 5.15507 71.9005 4.71006 71.9005H4.7042ZM5.6645 69.125C6.05095 69.125 6.38472 69.0372 6.65992 68.8615C6.93513 68.6858 7.15178 68.4282 7.30402 68.0886C7.45626 67.749 7.53238 67.3508 7.53238 66.8941C7.53238 66.4374 7.45626 66.0158 7.30402 65.6762C7.15178 65.3365 6.94098 65.0789 6.65992 64.9032C6.37886 64.7276 6.05095 64.6397 5.6645 64.6397C5.27804 64.6397 4.95013 64.7276 4.67493 64.9032C4.40558 65.0789 4.19478 65.3365 4.0484 65.6762C3.90201 66.0158 3.83174 66.4198 3.83174 66.8941C3.83174 67.3684 3.90201 67.7548 4.0484 68.0886C4.19478 68.4282 4.39972 68.6858 4.67493 68.8615C4.94428 69.0372 5.27804 69.125 5.6645 69.125Z" fill="white"/>
<path d="M17.2349 71.9178C16.2805 71.9178 15.4256 71.7012 14.6702 71.2679C13.9149 70.8346 13.3176 70.2373 12.8843 69.4819C12.451 68.7266 12.2344 67.8658 12.2344 66.8997C12.2344 65.9336 12.451 65.0728 12.8843 64.3175C13.3176 63.5621 13.9149 62.9648 14.6702 62.5315C15.4256 62.0982 16.2805 61.8816 17.2349 61.8816C18.1074 61.8816 18.9037 62.0221 19.6356 62.2973C20.3676 62.5784 20.9531 62.9766 21.3864 63.4918L19.5537 65.6701C19.419 65.5002 19.2492 65.348 19.0442 65.2075C18.8393 65.067 18.6109 64.9615 18.365 64.8796C18.1191 64.8035 17.8439 64.7625 17.5394 64.7625C17.1412 64.7625 16.7899 64.8503 16.4854 65.0318C16.1809 65.2133 15.9526 65.4651 15.7886 65.7872C15.6247 66.1092 15.5427 66.4723 15.5427 66.8821C15.5427 67.292 15.6188 67.655 15.7769 67.9712C15.935 68.2874 16.1692 68.5392 16.4737 68.7325C16.784 68.9257 17.1354 69.0252 17.5335 69.0252C17.838 69.0252 18.1132 68.9901 18.3592 68.914C18.6051 68.8437 18.8335 68.7383 19.0325 68.6036C19.2316 68.469 19.4014 68.3109 19.5478 68.1293L21.3806 70.3251C20.9356 70.8346 20.3442 71.2269 19.6122 71.5021C18.8803 71.7773 18.084 71.9178 17.2291 71.9178H17.2349Z" fill="white"/>
<path d="M26.7559 71.9178C25.8015 71.9178 24.9466 71.7012 24.1912 71.2679C23.4359 70.8346 22.8386 70.2373 22.4053 69.4819C21.972 68.7266 21.7554 67.8658 21.7554 66.8997C21.7554 65.9336 21.972 65.0728 22.4053 64.3175C22.8386 63.5621 23.4359 62.9648 24.1912 62.5315C24.9466 62.0982 25.8015 61.8816 26.7559 61.8816C27.6284 61.8816 28.4247 62.0221 29.1566 62.2973C29.8886 62.5784 30.4741 62.9766 30.9074 63.4918L29.0747 65.6701C28.94 65.5002 28.7702 65.348 28.5652 65.2075C28.3603 65.067 28.1319 64.9615 27.886 64.8796C27.6401 64.8035 27.3649 64.7625 27.0604 64.7625C26.6622 64.7625 26.3109 64.8503 26.0064 65.0318C25.7019 65.2133 25.4736 65.4651 25.3096 65.7872C25.1457 66.1092 25.0637 66.4723 25.0637 66.8821C25.0637 67.292 25.1398 67.655 25.2979 67.9712C25.456 68.2874 25.6902 68.5392 25.9947 68.7325C26.305 68.9257 26.6564 69.0252 27.0545 69.0252C27.359 69.0252 27.6342 68.9901 27.8802 68.914C28.1261 68.8437 28.3544 68.7383 28.5535 68.6036C28.7526 68.469 28.9224 68.3109 29.0688 68.1293L30.9016 70.3251C30.4566 70.8346 29.8652 71.2269 29.1332 71.5021C28.4013 71.7773 27.605 71.9178 26.7501 71.9178H26.7559Z" fill="white"/>
<path d="M38.1096 71.9357C37.6646 71.9357 37.2372 71.8771 36.839 71.7659C36.4408 71.6487 36.0837 71.4965 35.7675 71.2916C35.4513 71.0925 35.1936 70.8583 34.9887 70.5948C34.7838 70.3313 34.6491 70.0444 34.5905 69.7399L35.2815 69.5584L35.0472 71.719H31.9673V58.3159H35.3576V64.4114L34.6315 64.1772C34.7018 63.8493 34.8482 63.5507 35.059 63.2696C35.2698 62.9944 35.5274 62.7485 35.8319 62.5377C36.1364 62.3269 36.4701 62.1629 36.8449 62.0458C37.2196 61.9287 37.6119 61.876 38.0218 61.876C38.8533 61.876 39.5911 62.0927 40.2234 62.5201C40.8558 62.9476 41.3594 63.5448 41.7283 64.306C42.0972 65.0672 42.2787 65.9397 42.2787 66.9176C42.2787 67.8954 42.0972 68.762 41.7342 69.5174C41.3711 70.2727 40.8734 70.8641 40.2469 71.2916C39.6203 71.719 38.906 71.9357 38.1096 71.9357ZM37.1318 69.1602C37.5182 69.1602 37.8461 69.0665 38.1213 68.8791C38.3907 68.6918 38.6074 68.4341 38.7537 68.1004C38.906 67.7666 38.9821 67.3743 38.9821 66.9117C38.9821 66.4491 38.9118 66.0334 38.7654 65.6996C38.6191 65.36 38.4083 65.1024 38.1331 64.9267C37.852 64.751 37.5241 64.6632 37.1376 64.6632C36.7512 64.6632 36.4174 64.751 36.1422 64.9267C35.8611 65.1024 35.6504 65.36 35.4981 65.6996C35.3459 66.0392 35.2698 66.4433 35.2698 66.9117C35.2698 67.3801 35.3459 67.7666 35.4981 68.1004C35.6504 68.4341 35.8611 68.6918 36.1422 68.8791C36.4174 69.0665 36.7512 69.1602 37.1376 69.1602H37.1318Z" fill="white"/>
<path d="M46.9396 71.9357C46.2135 71.9357 45.5987 71.7835 45.0893 71.4732C44.5799 71.1628 44.1934 70.7178 43.9299 70.1381C43.6664 69.5584 43.5317 68.8558 43.5317 68.036V62.0693H46.9045V67.6906C46.9045 68.0067 46.9572 68.2702 47.0684 68.4869C47.1797 68.7035 47.3261 68.8734 47.5193 68.9846C47.7125 69.1017 47.9467 69.1544 48.2278 69.1544C48.4445 69.1544 48.6435 69.1251 48.8192 69.0666C48.9949 69.008 49.1412 68.9143 49.2642 68.7855C49.3872 68.6567 49.4809 68.5162 49.557 68.3522C49.6272 68.1883 49.6682 68.0126 49.6682 67.8194V62.0693H53.041V71.7367H49.92L49.7385 69.7809L50.3709 69.5643C50.2362 70.0093 50.002 70.4192 49.6624 70.7764C49.3228 71.1394 48.9187 71.4205 48.4444 71.6313C47.9702 71.8362 47.4724 71.9416 46.9396 71.9416V71.9357Z" fill="white"/>
<path d="M58.6681 71.9357C57.86 71.9357 57.1339 71.719 56.5016 71.2916C55.8692 70.8641 55.3656 70.2727 55.0084 69.5174C54.6454 68.762 54.4639 67.8954 54.4639 66.9176C54.4639 65.9397 54.6454 65.0731 55.0143 64.3177C55.3832 63.5624 55.8867 62.9651 56.5308 62.5318C57.1691 62.0985 57.901 61.8819 58.7266 61.8819C59.1482 61.8819 59.5522 61.9404 59.9446 62.0634C60.331 62.1864 60.6765 62.3562 60.9868 62.5728C61.2972 62.7895 61.5548 63.0471 61.7656 63.334C61.9764 63.6268 62.1111 63.9313 62.1755 64.2592L61.3967 64.4758V58.3276H64.787V71.7483H61.7246L61.4904 69.5876L62.1638 69.7165C62.1169 70.0327 61.9881 70.3196 61.7832 70.5889C61.5782 70.8524 61.3206 71.0925 61.0102 71.2974C60.6999 71.5024 60.3427 71.6605 59.9387 71.7776C59.5347 71.8947 59.1131 71.9474 58.6798 71.9474L58.6681 71.9357ZM59.6284 69.1778C60.0148 69.1778 60.3486 69.0841 60.6238 68.8967C60.899 68.7093 61.1156 68.4517 61.2562 68.1179C61.4026 67.7842 61.4728 67.386 61.4728 66.9117C61.4728 66.4374 61.4026 66.0334 61.2562 65.6879C61.1098 65.3425 60.899 65.0848 60.6238 64.9091C60.3427 64.7335 60.0148 64.6456 59.6284 64.6456C59.2419 64.6456 58.9081 64.7335 58.6329 64.9091C58.3519 65.0848 58.1411 65.3425 58.0005 65.6879C57.86 66.0334 57.7839 66.4433 57.7839 66.9117C57.7839 67.3801 57.8542 67.7842 58.0005 68.1179C58.1469 68.4517 58.3577 68.7093 58.6329 68.8967C58.9081 69.0841 59.2419 69.1778 59.6284 69.1778Z" fill="white"/>
<path d="M70.2384 71.9357C69.4303 71.9357 68.7043 71.719 68.0719 71.2916C67.4395 70.8641 66.9359 70.2727 66.5787 69.5174C66.2157 68.762 66.0342 67.8954 66.0342 66.9176C66.0342 65.9397 66.2157 65.0731 66.5846 64.3177C66.9535 63.5624 67.4571 62.9651 68.1011 62.5318C68.7394 62.0985 69.4713 61.8819 70.2969 61.8819C70.7185 61.8819 71.1226 61.9404 71.5149 62.0634C71.9013 62.1864 72.2468 62.3562 72.5571 62.5728C72.8675 62.7895 73.1251 63.0471 73.3359 63.334C73.5467 63.6268 73.6814 63.9313 73.7458 64.2592L72.967 64.4758V58.3276H76.3573V71.7483H73.2949L73.0607 69.5876L73.7341 69.7165C73.6872 70.0327 73.5584 70.3196 73.3535 70.5889C73.1485 70.8524 72.8909 71.0925 72.5806 71.2974C72.2702 71.5024 71.913 71.6605 71.509 71.7776C71.105 71.8947 70.6834 71.9474 70.2501 71.9474L70.2384 71.9357ZM71.1987 69.1778C71.5851 69.1778 71.9189 69.0841 72.1941 68.8967C72.4693 68.7093 72.686 68.4517 72.8265 68.1179C72.9729 67.7842 73.0431 67.386 73.0431 66.9117C73.0431 66.4374 72.9729 66.0334 72.8265 65.6879C72.6801 65.3425 72.4693 65.0848 72.1941 64.9091C71.913 64.7335 71.5851 64.6456 71.1987 64.6456C70.8122 64.6456 70.4785 64.7335 70.2033 64.9091C69.9222 65.0848 69.7114 65.3425 69.5709 65.6879C69.4303 66.0334 69.3542 66.4433 69.3542 66.9117C69.3542 67.3801 69.4245 67.7842 69.5709 68.1179C69.7173 68.4517 69.928 68.7093 70.2033 68.8967C70.4785 69.0841 70.8122 69.1778 71.1987 69.1778Z" fill="white"/>
<path d="M79.3437 75.9057L81.6625 70.4309L81.6976 71.9182L77.1069 62.0693H80.8778L82.4939 65.9164C82.6286 66.2208 82.7457 66.5195 82.8453 66.8122C82.9507 67.1109 83.0209 67.3919 83.0736 67.6554L82.693 67.9482C82.7399 67.7901 82.816 67.5734 82.9097 67.2982C83.0034 67.023 83.1146 66.701 83.2376 66.338L84.7073 62.0752H88.4958L84.3091 71.7425L82.6228 75.9116H79.3379L79.3437 75.9057Z" fill="white"/>
</svg>
