<svg width="125" height="22" viewBox="0 0 125 22" fill="none" xmlns="http://www.w3.org/2000/svg">
<path d="M15.7102 12.006C15.5071 11.0144 14.9215 8.60943 13.6839 6.47192C13.6898 6.45045 13.6976 6.43093 13.7034 6.41141C13.7952 6.07371 13.8342 5.7321 13.8186 5.4022C13.8049 5.10548 13.7464 4.84196 13.6605 4.61552C13.5805 4.4086 13.4731 4.22901 13.3482 4.08261C13.231 3.94401 13.0944 3.83079 12.9441 3.74881C12.7996 3.66877 12.6376 3.61411 12.4619 3.59264C12.2882 3.57117 12.1125 3.58093 11.9388 3.61997C11.7787 3.65511 11.6167 3.71757 11.4586 3.80346C11.4137 3.76833 11.3707 3.73124 11.3258 3.6961C10.0941 2.67517 8.76864 1.78699 7.88241 1.78699C6.94542 1.78699 5.57898 2.73959 4.35699 3.78785C4.20864 3.71172 4.05638 3.65315 3.90607 3.61997C3.73233 3.58093 3.55665 3.57117 3.38292 3.59264C3.20918 3.61411 3.04716 3.66877 2.90076 3.74881C2.75045 3.83079 2.6138 3.94401 2.49668 4.08261C2.37175 4.22901 2.26439 4.4086 2.18435 4.61552C2.09651 4.84 2.0399 5.10353 2.02624 5.4022C2.01062 5.7321 2.04966 6.07371 2.14141 6.41141C2.14726 6.43288 2.15507 6.4524 2.16093 6.47192C0.921371 8.60943 0.335754 11.0163 0.13274 12.006C0.0448973 12.2773 0 12.5584 0 12.8454C0 14.8736 2.28391 16.5953 5.44624 17.1946C6.28367 17.3976 7.31045 17.6104 7.94878 17.6104C8.63395 17.6104 9.70953 17.3761 10.5274 17.1692C13.6234 16.5465 15.8448 14.8463 15.8448 12.8454C15.8448 12.5584 15.798 12.2773 15.7121 12.006H15.7102Z" fill="white"/>
<path d="M26.8291 16.6911C25.8999 16.6911 25.0644 16.4413 24.3246 15.9415C23.5848 15.4418 23.0011 14.7508 22.5717 13.8704C22.1422 12.99 21.9275 11.9867 21.9275 10.8603C21.9275 9.73399 22.1383 8.69159 22.5619 7.81707C22.9836 6.9445 23.5692 6.25737 24.3149 5.75765C25.0605 5.25792 25.9214 5.00806 26.8916 5.00806C27.4128 5.00806 27.891 5.07833 28.3283 5.21888C28.7655 5.35943 29.1442 5.56439 29.4683 5.83183C29.7923 6.09926 30.0734 6.40183 30.3135 6.73953C30.5536 7.07724 30.7508 7.44422 30.905 7.83854L30.1027 7.79559V5.2384H33.9697V16.4998H30.0188V13.7533L30.8855 13.7962C30.7586 14.2042 30.5712 14.5849 30.3252 14.9362C30.0793 15.2876 29.7787 15.5941 29.4273 15.8556C29.0759 16.1172 28.6836 16.3202 28.2541 16.4686C27.8247 16.6169 27.3484 16.6911 26.8272 16.6911H26.8291ZM27.9496 13.4585C28.4005 13.4585 28.787 13.357 29.1111 13.152C29.4351 12.9471 29.685 12.6484 29.8607 12.2541C30.0363 11.8598 30.1242 11.3952 30.1242 10.8603C30.1242 10.3255 30.0363 9.8394 29.8607 9.44508C29.685 9.05077 29.4351 8.7521 29.1111 8.54714C28.787 8.34217 28.4005 8.24066 27.9496 8.24066C27.4987 8.24066 27.1141 8.34217 26.7979 8.54714C26.4816 8.7521 26.2376 9.05077 26.0698 9.44508C25.8999 9.8394 25.816 10.3118 25.816 10.8603C25.816 11.4089 25.8999 11.8598 26.0698 12.2541C26.2396 12.6484 26.4816 12.9471 26.7979 13.152C27.1141 13.357 27.4987 13.4585 27.9496 13.4585Z" fill="#59209F"/>
<path d="M41.4286 16.7106C40.3159 16.7106 39.3184 16.4568 38.44 15.9493C37.5596 15.4417 36.8666 14.7488 36.3591 13.8684C35.8515 12.988 35.5978 11.9846 35.5978 10.8583C35.5978 9.73197 35.8515 8.72862 36.3591 7.84824C36.8666 6.96786 37.5596 6.27488 38.44 5.76735C39.3204 5.25981 40.3159 5.00604 41.4286 5.00604C42.4436 5.00604 43.3748 5.16806 44.2278 5.49211C45.0789 5.81615 45.7602 6.28074 46.2658 6.88587L44.1322 9.4216C43.978 9.22444 43.7808 9.04485 43.5407 8.88283C43.3006 8.72081 43.0371 8.59392 42.7482 8.50218C42.4593 8.41043 42.1391 8.36553 41.7878 8.36553C41.3232 8.36553 40.9152 8.47094 40.5619 8.68177C40.2105 8.89259 39.9392 9.1854 39.7479 9.55824C39.5585 9.93108 39.4629 10.3586 39.4629 10.8368C39.4629 11.3151 39.5546 11.7387 39.7381 12.1037C39.9216 12.4707 40.1929 12.7655 40.5521 12.9919C40.9113 13.2183 41.3232 13.3296 41.7878 13.3296C42.1391 13.3296 42.4593 13.2867 42.7482 13.2027C43.0371 13.1188 43.2967 12.9978 43.529 12.8436C43.7613 12.6893 43.9623 12.5058 44.1302 12.295L46.2638 14.8522C45.7426 15.4437 45.0555 15.9024 44.2044 16.2265C43.3513 16.5505 42.4261 16.7125 41.4266 16.7125L41.4286 16.7106Z" fill="#59209F"/>
<path d="M52.5182 16.7106C51.4055 16.7106 50.408 16.4568 49.5296 15.9493C48.6492 15.4417 47.9562 14.7488 47.4487 13.8684C46.9411 12.988 46.6874 11.9846 46.6874 10.8583C46.6874 9.73197 46.9411 8.72862 47.4487 7.84824C47.9562 6.96786 48.6492 6.27488 49.5296 5.76735C50.41 5.25981 51.4055 5.00604 52.5182 5.00604C53.5332 5.00604 54.4644 5.16806 55.3174 5.49211C56.1685 5.81615 56.8498 6.28074 57.3554 6.88587L55.2218 9.4216C55.0676 9.22444 54.8704 9.04485 54.6303 8.88283C54.3902 8.72081 54.1267 8.59392 53.8378 8.50218C53.5489 8.41043 53.2287 8.36553 52.8774 8.36553C52.4128 8.36553 52.0048 8.47094 51.6515 8.68177C51.3001 8.89259 51.0288 9.1854 50.8375 9.55824C50.6481 9.93108 50.5525 10.3586 50.5525 10.8368C50.5525 11.3151 50.6442 11.7387 50.8277 12.1037C51.0112 12.4707 51.2825 12.7655 51.6417 12.9919C52.0009 13.2183 52.4128 13.3296 52.8774 13.3296C53.2287 13.3296 53.5489 13.2867 53.8378 13.2027C54.1267 13.1188 54.3863 12.9978 54.6186 12.8436C54.8509 12.6893 55.0519 12.5058 55.2198 12.295L57.3534 14.8522C56.8322 15.4437 56.1451 15.9024 55.294 16.2265C54.441 16.5505 53.5157 16.7125 52.5162 16.7125L52.5182 16.7106Z" fill="#59209F"/>
<path d="M65.7452 16.732C65.224 16.732 64.7302 16.6657 64.2656 16.531C63.801 16.3982 63.3852 16.2148 63.0182 15.9825C62.6512 15.7502 62.3486 15.4788 62.1105 15.1684C61.8704 14.8581 61.7162 14.5282 61.6459 14.1748L62.4482 13.964L62.173 16.4783H58.5812V0.865723H62.5321V7.96535L61.6869 7.69011C61.7708 7.30946 61.9368 6.95809 62.1827 6.63405C62.4287 6.31001 62.7293 6.02501 63.0807 5.77905C63.432 5.53309 63.8264 5.34374 64.2636 5.20905C64.7009 5.07631 65.1577 5.00799 65.6379 5.00799C66.61 5.00799 67.465 5.25785 68.2048 5.75758C68.9446 6.2573 69.5283 6.95029 69.9578 7.83847C70.3872 8.72666 70.6019 9.73977 70.6019 10.8798C70.6019 12.0198 70.3911 13.0309 69.9675 13.9113C69.5459 14.7917 68.9681 15.4827 68.2361 15.9825C67.504 16.4822 66.6725 16.732 65.7433 16.732H65.7452ZM64.6052 13.4994C65.0561 13.4994 65.4407 13.3901 65.7569 13.1715C66.0732 12.9529 66.3211 12.6503 66.4968 12.2638C66.6725 11.8773 66.7603 11.4146 66.7603 10.8798C66.7603 10.3449 66.6764 9.85885 66.5065 9.46453C66.3367 9.07022 66.0907 8.77155 65.7667 8.56659C65.4427 8.36357 65.0561 8.26012 64.6052 8.26012C64.1543 8.26012 63.7678 8.36357 63.4438 8.56659C63.1197 8.77155 62.8698 9.07022 62.6942 9.46453C62.5185 9.85885 62.4306 10.3312 62.4306 10.8798C62.4306 11.4283 62.5185 11.8773 62.6942 12.2638C62.8698 12.6522 63.1197 12.9548 63.4438 13.1715C63.7678 13.3901 64.1543 13.4994 64.6052 13.4994Z" fill="#F99B28"/>
<path d="M76.0326 16.7321C75.1874 16.7321 74.469 16.5525 73.8775 16.1933C73.2861 15.8342 72.8351 15.3169 72.5248 14.6415C72.2144 13.9661 72.0602 13.1481 72.0602 12.1916V5.2384H75.9897V11.7876C75.9897 12.1545 76.0521 12.463 76.179 12.7167C76.3059 12.9705 76.4816 13.1638 76.708 13.2984C76.9325 13.4331 77.2078 13.4995 77.5318 13.4995C77.7856 13.4995 78.014 13.4644 78.2189 13.3941C78.4219 13.3238 78.5957 13.2145 78.7362 13.0662C78.8768 12.9178 78.99 12.7499 79.0739 12.5586C79.1579 12.3693 79.2008 12.1604 79.2008 11.9359V5.2384H83.1303V16.4998H79.4956L79.2847 14.2179L80.0246 13.9641C79.8684 14.4853 79.5951 14.9577 79.2008 15.3793C78.8065 15.801 78.3341 16.1328 77.7856 16.3729C77.237 16.613 76.6514 16.7321 76.0326 16.7321Z" fill="#F99B28"/>
<path d="M89.703 16.732C88.7582 16.732 87.9169 16.4822 87.179 15.9825C86.4392 15.4827 85.8594 14.7917 85.4358 13.9113C85.0142 13.0309 84.8014 12.0198 84.8014 10.8798C84.8014 9.73977 85.0161 8.72861 85.4456 7.84823C85.875 6.96785 86.4626 6.27487 87.2102 5.76734C87.9559 5.2598 88.809 5.00604 89.7674 5.00604C90.2613 5.00604 90.7317 5.07631 91.1827 5.21686C91.6336 5.35741 92.0377 5.55456 92.3968 5.80833C92.756 6.0621 93.0586 6.35686 93.3046 6.69652C93.5505 7.03422 93.7086 7.3934 93.7809 7.77405L92.8731 8.02782V0.865723H96.8241V16.4997H93.2538L92.9786 13.9855L93.7594 14.1339C93.7028 14.5008 93.5544 14.8385 93.3163 15.147C93.0762 15.4574 92.7775 15.7326 92.4183 15.9707C92.0591 16.2108 91.6433 16.3963 91.1709 16.531C90.6986 16.6657 90.2105 16.732 89.703 16.732ZM90.8235 13.5209C91.2744 13.5209 91.6609 13.4116 91.985 13.193C92.309 12.9743 92.555 12.6718 92.7248 12.2853C92.8946 11.8988 92.9786 11.4303 92.9786 10.8798C92.9786 10.3293 92.8946 9.85495 92.7248 9.45282C92.555 9.0507 92.309 8.74813 91.985 8.54512C91.6609 8.34015 91.2744 8.23864 90.8235 8.23864C90.3726 8.23864 89.9861 8.34015 89.662 8.54512C89.338 8.75008 89.092 9.05265 88.9222 9.45282C88.7524 9.85299 88.6684 10.3293 88.6684 10.8798C88.6684 11.4303 88.7524 11.8968 88.9222 12.2853C89.092 12.6737 89.338 12.9763 89.662 13.193C89.9861 13.4116 90.3726 13.5209 90.8235 13.5209Z" fill="#F99B28"/>
<path d="M103.182 16.732C102.237 16.732 101.396 16.4822 100.658 15.9825C99.9181 15.4827 99.3383 14.7917 98.9147 13.9113C98.493 13.0309 98.2803 12.0198 98.2803 10.8798C98.2803 9.73977 98.495 8.72861 98.9244 7.84823C99.3539 6.96785 99.9415 6.27487 100.689 5.76734C101.435 5.2598 102.288 5.00604 103.246 5.00604C103.74 5.00604 104.211 5.07631 104.662 5.21686C105.112 5.35741 105.517 5.55456 105.876 5.80833C106.235 6.0621 106.537 6.35686 106.783 6.69652C107.029 7.03422 107.188 7.3934 107.26 7.77405L106.352 8.02782V0.865723H110.303V16.4997H106.733L106.457 13.9855L107.238 14.1339C107.182 14.5008 107.033 14.8385 106.795 15.147C106.555 15.4574 106.256 15.7326 105.897 15.9707C105.538 16.2108 105.122 16.3963 104.65 16.531C104.177 16.6657 103.689 16.732 103.182 16.732ZM104.302 13.5209C104.753 13.5209 105.14 13.4116 105.464 13.193C105.788 12.9743 106.034 12.6718 106.204 12.2853C106.374 11.8988 106.457 11.4303 106.457 10.8798C106.457 10.3293 106.374 9.85495 106.204 9.45282C106.034 9.0507 105.788 8.74813 105.464 8.54512C105.14 8.34015 104.753 8.23864 104.302 8.23864C103.851 8.23864 103.465 8.34015 103.141 8.54512C102.817 8.75008 102.571 9.05265 102.401 9.45282C102.231 9.85299 102.147 10.3293 102.147 10.8798C102.147 11.4303 102.231 11.8968 102.401 12.2853C102.571 12.6737 102.817 12.9763 103.141 13.193C103.465 13.4116 103.851 13.5209 104.302 13.5209Z" fill="#F99B28"/>
<path d="M113.787 21.3584L116.491 14.9771L116.534 16.7086L111.189 5.23633H115.583L117.463 9.71435C117.617 10.0657 117.756 10.4151 117.875 10.7606C117.994 11.1062 118.082 11.4341 118.138 11.7425L117.695 12.0802C117.752 11.8967 117.836 11.6449 117.949 11.3189C118.062 10.9949 118.189 10.6221 118.33 10.1985L120.042 5.23438H124.457L119.577 16.4958L117.611 21.3545H113.787V21.3584Z" fill="#F99B28"/>
<path d="M7.81425 9.78271C5.87781 9.78271 4.15219 10.2785 3.03561 11.0516C2.99462 11.1745 2.97314 11.2468 2.97314 11.2468C2.97314 11.2468 3.89452 12.0881 4.32982 12.3458C4.76513 12.6015 5.14969 12.8025 5.85438 12.4199C6.3463 12.1506 6.79137 11.7836 7.31647 11.6313C7.46873 11.6216 7.63466 11.604 7.81425 11.5786C7.85329 11.5728 7.89233 11.5688 7.93137 11.5669C7.97041 11.5708 8.00945 11.5728 8.04849 11.5786C8.22613 11.604 8.39401 11.6216 8.54627 11.6313C9.07332 11.7836 9.51644 12.1506 10.0084 12.4199C10.7111 12.8045 11.0976 12.6034 11.5329 12.3458C11.935 12.1096 12.753 11.3717 12.874 11.2624C11.7789 10.3722 9.92247 9.78467 7.8162 9.78467L7.81425 9.78271Z" fill="#F99B28"/>
<path d="M15.7102 12.006C15.5071 11.0144 14.9215 8.60943 13.6839 6.47192C13.6898 6.45045 13.6976 6.43093 13.7034 6.41141C13.7952 6.07371 13.8342 5.7321 13.8186 5.4022C13.8049 5.10548 13.7464 4.84196 13.6605 4.61552C13.5805 4.4086 13.4731 4.22901 13.3482 4.08261C13.231 3.94401 13.0944 3.83079 12.9441 3.74881C12.7996 3.66877 12.6376 3.61411 12.4619 3.59264C12.2882 3.57117 12.1125 3.58093 11.9388 3.61997C11.7787 3.65511 11.6167 3.71757 11.4586 3.80346C11.4137 3.76833 11.3707 3.73124 11.3258 3.6961C10.0941 2.67517 8.76864 1.78699 7.88241 1.78699C6.94542 1.78699 5.57898 2.73959 4.35699 3.78785C4.20864 3.71172 4.05638 3.65315 3.90607 3.61997C3.73233 3.58093 3.55665 3.57117 3.38292 3.59264C3.20918 3.61411 3.04716 3.66877 2.90076 3.74881C2.75045 3.83079 2.6138 3.94401 2.49668 4.08261C2.37175 4.22901 2.26439 4.4086 2.18435 4.61552C2.09651 4.84 2.0399 5.10353 2.02624 5.4022C2.01062 5.7321 2.04966 6.07371 2.14141 6.41141C2.14726 6.43288 2.15507 6.4524 2.16093 6.47192C0.921371 8.60943 0.335754 11.0163 0.13274 12.006C0.0448973 12.2773 0 12.5584 0 12.8454C0 14.8736 2.28391 16.5953 5.44624 17.1946C6.28367 17.3976 7.31045 17.6104 7.94878 17.6104C8.63395 17.6104 9.70953 17.3761 10.5274 17.1692C13.6234 16.5465 15.8448 14.8463 15.8448 12.8454C15.8448 12.5584 15.798 12.2773 15.7121 12.006H15.7102ZM14.0372 12.5213C14.0138 13.9815 10.7129 15.9589 10.7129 15.9589C10.7129 15.9589 9.17662 16.9252 7.93316 16.9252C6.6897 16.9252 5.15343 15.9589 5.15343 15.9589C5.15343 15.9589 1.8525 13.9815 1.82908 12.5213C1.82908 12.5174 1.82908 12.5135 1.82908 12.5096C1.82908 11.3931 4.55805 10.214 7.92535 10.214C7.92926 10.214 7.93121 10.214 7.93511 10.214C7.93902 10.214 7.94097 10.214 7.94487 10.214C11.3122 10.214 14.0411 11.3931 14.0411 12.5096C14.0411 12.5135 14.0411 12.5174 14.0411 12.5213H14.0372Z" fill="#59209F"/>
<path d="M5.29407 11.5417C5.66601 11.5417 5.96753 11.2402 5.96753 10.8683C5.96753 10.4963 5.66601 10.1948 5.29407 10.1948C4.92212 10.1948 4.62061 10.4963 4.62061 10.8683C4.62061 11.2402 4.92212 11.5417 5.29407 11.5417Z" fill="#59209F"/>
<path d="M10.5491 11.5652C10.921 11.5652 11.2225 11.2637 11.2225 10.8917C11.2225 10.5198 10.921 10.2183 10.5491 10.2183C10.1771 10.2183 9.87561 10.5198 9.87561 10.8917C9.87561 11.2637 10.1771 11.5652 10.5491 11.5652Z" fill="#59209F"/>
<path d="M7.95467 13.437C7.95467 13.437 7.94295 13.4428 7.92148 13.4545C7.90001 13.4428 7.8883 13.437 7.8883 13.437C7.8883 13.437 6.17439 13.437 6.24271 14.2256C6.31103 15.0142 6.92203 15.7892 7.87463 15.8438C7.87463 15.8438 7.87658 15.8438 7.87854 15.8438C7.8922 15.8438 7.90782 15.8438 7.92148 15.8438C7.93515 15.8438 7.95076 15.8438 7.96443 15.8438C7.96443 15.8438 7.96638 15.8438 7.96833 15.8438C8.92093 15.7892 9.53193 15.0142 9.60025 14.2256C9.66857 13.437 7.95467 13.437 7.95467 13.437Z" fill="#59209F"/>
</svg>
