<svg width="55" height="55" viewBox="0 0 55 55" fill="none" xmlns="http://www.w3.org/2000/svg">
<path d="M10.1666 49.0277C14.9594 52.8773 20.9245 54.9717 27.0724 54.9664C28.0852 54.9706 29.0981 54.9125 30.1035 54.7943C34.9111 54.3665 39.5159 52.664 43.4459 49.861C47.3747 47.058 50.4841 43.2579 52.4527 38.8517C54.4214 34.4454 55.1786 29.5935 54.6453 24.7975C54.1119 20.0005 52.308 15.4337 49.4195 11.5671C46.5309 7.70055 42.6622 4.67574 38.2148 2.8053C33.7663 0.933806 28.8995 0.284274 24.1152 0.923244C17.0928 1.6636 10.6461 5.14362 6.17437 10.6081L5.78042 7.87271C5.65263 6.99188 5.06541 6.24729 4.2395 5.91672C3.41359 5.5872 2.47362 5.72344 1.77445 6.2737C1.07633 6.82395 0.723579 7.70583 0.852429 8.58666L2.25711 18.0001C2.3078 18.0709 2.36589 18.1374 2.42926 18.1976C2.41553 18.3286 2.41553 18.4606 2.42926 18.5916C2.50425 18.7616 2.60352 18.919 2.72498 19.0594L3.0207 19.3552C3.0207 19.3552 3.16856 19.5527 3.26679 19.6012C3.34811 19.6646 3.44 19.7143 3.53822 19.7491C3.79697 19.8526 4.07263 19.9107 4.35145 19.9213C4.55634 19.9455 4.76229 19.9455 4.96719 19.9213L13.8885 17.7519C14.5232 17.5893 15.0671 17.1816 15.3998 16.6166C15.7325 16.0526 15.8276 15.3798 15.6628 14.7451C15.4801 14.1336 15.0661 13.6182 14.5106 13.3055C13.954 12.9929 13.2991 12.9084 12.6813 13.069L10.0694 13.6361C13.7153 9.24042 18.9316 6.43846 24.6095 5.82378C28.5394 5.26191 32.5485 5.76463 36.2186 7.28021C39.8877 8.79578 43.0836 11.2693 45.4705 14.4409C47.8574 17.6136 49.3508 21.3682 49.7923 25.314C50.2337 29.2597 49.6074 33.252 47.9799 36.8735C46.3524 40.495 43.7817 43.6128 40.5383 45.9015C37.2949 48.1912 33.4959 49.5674 29.5374 49.8874C25.6582 50.312 21.7346 49.7057 18.1648 48.13C14.595 46.5531 11.5037 44.0638 9.2034 40.9101C6.90311 37.7565 5.47625 34.0525 5.06541 30.1722C4.96824 29.5586 4.64189 29.0031 4.1529 28.6197C3.6639 28.2353 3.04816 28.0504 2.4282 28.1022C1.77762 28.1761 1.183 28.5067 0.77533 29.02C0.368713 29.5333 0.182831 30.187 0.258873 30.8376C0.626413 34.3736 1.69101 37.8008 3.39141 40.9228C5.09181 44.0448 7.39422 46.7981 10.1666 49.0245V49.0277Z" fill="#59219E"/>
<path d="M27.0734 11.3232C26.4196 11.3232 25.7933 11.5831 25.3307 12.0446C24.8681 12.5072 24.6094 13.1335 24.6094 13.7872V27.8583C24.6125 28.6082 24.9568 29.3158 25.5462 29.7805L34.4664 36.8282C34.9776 37.2316 35.6261 37.4154 36.2724 37.3415C36.9188 37.2675 37.5092 36.9412 37.9169 36.4332C38.3224 35.9262 38.5115 35.2788 38.4418 34.6325C38.3721 33.9861 38.051 33.3936 37.5472 32.9838L29.5374 26.6754V13.7872C29.5374 13.1335 29.2776 12.5072 28.816 12.0446C28.3534 11.582 27.7271 11.3232 27.0734 11.3232Z" fill="#59219E"/>
</svg>
