<svg width="28" height="29" viewBox="0 0 28 29" fill="none" xmlns="http://www.w3.org/2000/svg">
<circle cx="13.8003" cy="13.8843" r="13.7139" fill="#FA9C29"/>
<path d="M13.7727 20.3704C12.626 20.3704 11.6127 20.1437 10.7327 19.6904C9.86601 19.2371 9.11934 18.5571 8.49268 17.6504L9.97268 15.9504C10.626 16.8837 11.2527 17.5304 11.8527 17.8904C12.4527 18.2504 13.166 18.4304 13.9927 18.4304C14.4993 18.4304 14.9593 18.3504 15.3727 18.1904C15.786 18.0304 16.1127 17.8104 16.3527 17.5304C16.5927 17.2504 16.7127 16.9304 16.7127 16.5704C16.7127 16.3304 16.6727 16.1037 16.5927 15.8904C16.5127 15.6771 16.386 15.4837 16.2127 15.3104C16.0527 15.1371 15.8393 14.9771 15.5727 14.8304C15.3193 14.6837 15.0193 14.5571 14.6727 14.4504C14.326 14.3304 13.926 14.2304 13.4727 14.1504C12.5127 13.9637 11.7127 13.6837 11.0727 13.3104C10.446 12.9371 9.97268 12.4637 9.65268 11.8904C9.34601 11.3171 9.19268 10.6504 9.19268 9.89041C9.19268 9.33041 9.31268 8.81041 9.55268 8.33041C9.80601 7.85041 10.146 7.43708 10.5727 7.09041C11.0127 6.73041 11.526 6.45708 12.1127 6.27041C12.6993 6.07041 13.3327 5.97041 14.0127 5.97041C15.0927 5.97041 16.0327 6.18374 16.8327 6.61041C17.646 7.02374 18.286 7.63041 18.7527 8.43041L17.2327 9.93041C16.8327 9.27708 16.3527 8.77708 15.7927 8.43041C15.246 8.08374 14.6327 7.91041 13.9527 7.91041C13.4327 7.91041 12.9793 7.99041 12.5927 8.15041C12.206 8.31041 11.8993 8.53708 11.6727 8.83041C11.4593 9.11041 11.3527 9.44374 11.3527 9.83041C11.3527 10.1104 11.406 10.3704 11.5127 10.6104C11.6193 10.8371 11.7793 11.0437 11.9927 11.2304C12.2193 11.4037 12.5193 11.5637 12.8927 11.7104C13.266 11.8437 13.7127 11.9637 14.2327 12.0704C14.966 12.2304 15.6193 12.4371 16.1927 12.6904C16.766 12.9304 17.2527 13.2171 17.6527 13.5504C18.0527 13.8837 18.3527 14.2571 18.5527 14.6704C18.766 15.0837 18.8727 15.5304 18.8727 16.0104C18.8727 16.9037 18.666 17.6771 18.2527 18.3304C17.8393 18.9837 17.2527 19.4904 16.4927 19.8504C15.7327 20.1971 14.826 20.3704 13.7727 20.3704ZM12.5727 21.9904V12.9104L14.5127 13.5704V21.9904H12.5727ZM15.3127 13.5704L13.3727 12.9104V4.53041H15.3127V13.5704Z" fill="white"/>
</svg>
