<svg width="27" height="16" viewBox="0 0 27 16" fill="none" xmlns="http://www.w3.org/2000/svg">
<path d="M25.0455 8.32182C21.9587 12.2945 17.821 14.7254 13.2707 14.7254C8.72035 14.7254 4.54759 12.2741 1.45695 8.2688C1.42581 8.22801 1.42581 8.29735 1.45695 8.25656C4.53981 4.28392 8.68143 1.85303 13.2318 1.85303C17.7821 1.85303 21.9549 4.30432 25.0455 8.30551C25.0766 8.34629 25.0766 8.28104 25.0455 8.32182Z" stroke="#59219E" stroke-width="2.3" stroke-miterlimit="10"/>
<path d="M17.3367 8.28907C17.3367 10.6888 15.4859 12.5938 13.2514 12.5938C11.0169 12.5938 9.16602 10.6888 9.16602 8.28907C9.16602 5.88938 11.0169 3.98438 13.2514 3.98438C15.4859 3.98438 17.3367 5.88938 17.3367 8.28907Z" fill="#59219E" stroke="#59219E"/>
</svg>
