<svg width="34" height="35" viewBox="0 0 34 35" fill="none" xmlns="http://www.w3.org/2000/svg">
<path d="M15.7714 18.5541C15.7714 18.1154 15.4789 17.7132 15.0402 17.6036C12.0057 16.8724 9.66584 14.4959 8.89807 11.4614C8.78839 11.0227 8.42279 10.7302 7.94751 10.7302C7.50878 10.7302 7.10662 11.0227 6.99694 11.4614C6.26573 14.4959 3.92587 16.8724 0.891363 17.6036C0.452639 17.7132 0.160156 18.0788 0.160156 18.5541C0.160156 18.9929 0.452639 19.395 0.891363 19.5047C3.88931 20.2359 6.30229 22.6489 7.0335 25.6468C7.14318 26.0856 7.50878 26.378 7.98407 26.378C8.42279 26.378 8.82495 26.0856 8.93463 25.6468C9.66584 22.6489 12.0788 20.2359 15.0768 19.5413C15.4789 19.395 15.7714 18.9929 15.7714 18.5541Z" fill="white"/>
<path d="M32.2236 25.062C28.7869 24.2211 26.118 21.5522 25.3137 18.1155C25.204 17.6403 24.7653 17.2747 24.2534 17.2747C23.7416 17.2747 23.3029 17.6037 23.1932 18.1155C22.3523 21.5522 19.7199 24.2211 16.2833 25.062C15.808 25.1717 15.4424 25.6104 15.4424 26.1223C15.4424 26.6341 15.7714 27.0728 16.2833 27.1825C19.6834 27.9868 22.3888 30.7289 23.1932 34.0924C23.3029 34.5677 23.7416 34.9333 24.2534 34.9333C24.7653 34.9333 25.204 34.6043 25.3137 34.0924C26.118 30.7289 28.8235 27.9868 32.2236 27.1825C32.6989 27.0728 33.0645 26.6341 33.0645 26.1223C33.0279 25.6104 32.6989 25.1717 32.2236 25.062Z" fill="white"/>
<path d="M13.9799 7.76891C16.5757 8.39044 18.6596 10.4744 19.2812 13.0702C19.3543 13.4358 19.7199 13.6917 20.0855 13.6917C20.4877 13.6917 20.8167 13.4358 20.8898 13.0702C21.5114 10.4744 23.5953 8.39044 26.1911 7.76891C26.5567 7.69579 26.8492 7.33019 26.8492 6.96459C26.8492 6.56242 26.5932 6.23338 26.2276 6.16026C23.5587 5.50217 21.5479 3.49136 20.8898 0.822453C20.8167 0.45685 20.4511 0.200928 20.0855 0.200928C19.6833 0.200928 19.3543 0.45685 19.2812 0.822453C18.6596 3.49136 16.6123 5.50217 13.9799 6.16026C13.6143 6.23338 13.3584 6.59898 13.3584 6.96459C13.3584 7.33019 13.6143 7.69579 13.9799 7.76891Z" fill="white"/>
</svg>
