<svg width="94" height="26" viewBox="0 0 94 26" fill="none" xmlns="http://www.w3.org/2000/svg">
<path d="M29.9927 5.54485C29.8004 5.54485 29.6366 5.68449 29.6067 5.87532L27.3774 20.0141C27.3467 20.2115 27.4812 20.3965 27.6786 20.428C27.6969 20.4309 27.7159 20.4323 27.7349 20.4323H30.3787C30.571 20.4323 30.7348 20.292 30.7648 20.1019L31.4199 15.9497C31.4499 15.7596 31.6136 15.6192 31.8059 15.6192H34.2099C37.019 15.6192 39.4025 13.5699 39.8383 10.793C40.2777 7.99271 38.0894 5.55069 34.9886 5.54485H29.9927ZM32.5627 8.70118H34.4863C36.07 8.70118 36.5854 9.63558 36.4224 10.6687C36.2593 11.704 35.4587 12.4666 33.927 12.4666H31.9697L32.5634 8.70118H32.5627ZM45.2158 9.66263C44.5483 9.66483 43.7798 9.80155 42.9178 10.1613C40.9394 10.986 39.9896 12.6903 39.586 13.9325C39.586 13.9325 38.3021 17.7227 41.2033 19.8058C41.2033 19.8058 43.8939 21.8105 46.923 19.6822L46.8711 20.0149C46.8404 20.2123 46.9749 20.3972 47.1723 20.4287C47.1906 20.4316 47.2089 20.4331 47.2279 20.4331H49.7379C49.9302 20.4331 50.094 20.2927 50.124 20.1026L51.6506 10.4201C51.682 10.2227 51.5475 10.037 51.3493 10.0063C51.3311 10.0033 51.3121 10.0019 51.293 10.0019H48.783C48.5907 10.0019 48.4262 10.1423 48.397 10.3324L48.3151 10.8537C48.3151 10.8537 47.2191 9.65605 45.2158 9.6641V9.66263ZM45.2977 12.721C45.5858 12.721 45.8497 12.7605 46.0859 12.8365C47.1687 13.1838 47.7828 14.2242 47.6052 15.3524C47.3858 16.7408 46.2474 17.7637 44.7866 17.7637C44.4985 17.7637 44.2353 17.7242 43.9984 17.6482C42.9156 17.3009 42.2978 16.2605 42.4755 15.1323C42.6948 13.7439 43.8369 12.721 45.2977 12.721Z" fill="#003087"/>
<path d="M66.1363 5.54485C65.944 5.54485 65.7802 5.68449 65.7502 5.87532L63.521 20.0141C63.4903 20.2115 63.6248 20.3965 63.8222 20.428C63.8405 20.4309 63.8595 20.4323 63.8785 20.4323H66.5223C66.7146 20.4323 66.8784 20.292 66.9083 20.1019L67.5634 15.9497C67.5934 15.7596 67.7572 15.6192 67.9495 15.6192H70.3535C73.1625 15.6192 75.5461 13.5699 75.9811 10.793C76.4205 7.99271 74.2329 5.55069 71.1321 5.54485H66.1363ZM68.7062 8.70118H70.6299C72.2135 8.70118 72.729 9.63558 72.5659 10.6687C72.4029 11.704 71.6023 12.4666 70.0705 12.4666H68.1133L68.707 8.70118H68.7062ZM81.3586 9.66263C80.6911 9.66483 79.9227 9.80155 79.0606 10.1613C77.0822 10.986 76.1324 12.6903 75.7288 13.9325C75.7288 13.9325 74.4449 17.7227 77.3468 19.8058C77.3468 19.8058 80.0367 21.8105 83.0658 19.6822L83.0139 20.0149C82.9832 20.2123 83.1177 20.3972 83.3152 20.4287C83.3334 20.4316 83.3524 20.4331 83.3715 20.4331H85.8815C86.0738 20.4331 86.2375 20.2927 86.2675 20.1026L87.7949 10.4201C87.8263 10.2227 87.6918 10.037 87.4936 10.0063C87.4746 10.0033 87.4556 10.0019 87.4366 10.0019H84.9266C84.7343 10.0019 84.5698 10.1423 84.5406 10.3324L84.4587 10.8537C84.4587 10.8537 83.3627 9.65605 81.3594 9.6641L81.3586 9.66263ZM81.4405 12.721C81.7286 12.721 81.9925 12.7605 82.2287 12.8365C83.3115 13.1838 83.9257 14.2242 83.748 15.3524C83.5287 16.7408 82.3903 17.7637 80.9294 17.7637C80.6414 17.7637 80.3782 17.7242 80.1413 17.6482C79.0584 17.3009 78.4406 16.2605 78.6183 15.1323C78.8376 13.7439 79.9797 12.721 81.4405 12.721Z" fill="#0070E0"/>
<path d="M52.8406 10.0011C52.6418 10.0011 52.4999 10.1956 52.5613 10.3849L55.3134 18.9239L52.8253 22.9481C52.7046 23.1434 52.845 23.3956 53.0746 23.3956H56.0153C56.1863 23.3956 56.345 23.3057 56.4335 23.1594L64.1185 10.4464C64.2362 10.2511 64.0958 10.0011 63.867 10.0011H60.9263C60.7538 10.0011 60.5937 10.0925 60.5059 10.2409L57.4812 15.3479L55.9458 10.2782C55.8961 10.113 55.7433 10.0004 55.5715 10.0004H52.8414L52.8406 10.0011Z" fill="#003087"/>
<path d="M90.647 5.54469C90.4547 5.54469 90.2909 5.68507 90.2609 5.87517L88.0309 20.0132C87.9995 20.2107 88.134 20.3964 88.3322 20.4271C88.3512 20.43 88.3702 20.4315 88.3892 20.4315H91.033C91.2253 20.4315 91.3891 20.2911 91.419 20.101L93.6483 5.96217C93.679 5.76477 93.5445 5.57979 93.3471 5.54835C93.3288 5.54542 93.3105 5.54396 93.2915 5.54396H90.6477L90.647 5.54469Z" fill="#0070E0"/>
<path d="M7.9491 5.54485C7.59742 5.54485 7.29765 5.80148 7.24282 6.14877L6.06934 13.5925C6.12417 13.2452 6.42394 12.9886 6.77562 12.9886H10.2149C13.6761 12.9886 16.6131 10.464 17.1498 7.04222C17.19 6.78705 17.2127 6.52896 17.2178 6.27014C16.3382 5.80879 15.3051 5.54485 14.1726 5.54485H7.9491Z" fill="#001C64"/>
<path d="M17.2171 6.27007C17.212 6.52889 17.1894 6.78625 17.1491 7.04215C16.6125 10.4639 13.6755 12.9885 10.2143 12.9885H6.77498C6.4233 12.9885 6.12354 13.2444 6.0687 13.5924L4.98953 20.4323L4.31396 24.7233C4.26351 25.0399 4.4792 25.3375 4.79578 25.388C4.82576 25.3931 4.85647 25.3953 4.88718 25.3953H8.61965C8.97133 25.3953 9.2711 25.1386 9.32593 24.7913L10.3093 18.5554C10.3642 18.2074 10.6639 17.9515 11.0163 17.9515H13.2141C16.6754 17.9515 19.6124 15.4269 20.149 12.0051C20.5299 9.57702 19.3067 7.36678 17.2171 6.2708V6.27007Z" fill="#0070E0"/>
<path d="M3.70885 0.583252C3.35717 0.583252 3.0574 0.839151 3.00257 1.18644L0.0736159 19.7611C0.0180491 20.1135 0.290765 20.4323 0.647562 20.4323H4.99127L6.06971 13.5924L7.24319 6.1487C7.29802 5.80141 7.59779 5.54551 7.94947 5.54478H14.1722C15.3048 5.54478 16.3379 5.80872 17.2174 6.27007C17.2774 3.15541 14.7074 0.583252 11.1731 0.583252H3.70885Z" fill="#003087"/>
</svg>
