<svg width="26" height="26" viewBox="0 0 26 26" fill="none" xmlns="http://www.w3.org/2000/svg">
<path d="M1.31484 13.9717L13.2015 2.10096C13.6241 1.67979 14.1881 1.32304 14.8972 1.02975C15.6064 0.735028 16.255 0.588867 16.843 0.588867H23.7582C24.3352 0.588867 24.8343 0.799454 25.2545 1.22063C25.6761 1.64228 25.8867 2.14135 25.8867 2.71734V9.63258C25.8867 10.2196 25.7401 10.8682 25.4463 11.5774C25.1521 12.2866 24.7944 12.8462 24.3732 13.2563L12.488 25.1593C12.0779 25.5694 11.5788 25.7742 10.9908 25.7742C10.4028 25.7742 9.91094 25.5694 9.47822 25.1593L1.31581 16.9801C0.904728 16.5699 0.700871 16.0714 0.700871 15.4848C0.700871 14.9083 0.905209 14.4035 1.31484 13.9713V13.9717ZM19.0623 7.41372C19.4778 7.82912 19.9807 8.03731 20.5667 8.03731C21.1528 8.03731 21.6557 7.82912 22.0711 7.41372C22.4866 6.99735 22.6952 6.49589 22.6952 5.90884C22.6952 5.32179 22.487 4.81984 22.0711 4.40492C21.6557 3.98951 21.1538 3.78133 20.5667 3.78133C19.9797 3.78133 19.4773 3.98903 19.0623 4.40492C18.6469 4.81984 18.4392 5.32131 18.4392 5.90884C18.4388 6.49541 18.6465 6.99735 19.0623 7.41372Z" fill="#59219E"/>
</svg>
