<svg width="23" height="27" viewBox="0 0 23 27" fill="none" xmlns="http://www.w3.org/2000/svg">
<path d="M12.2761 0.527324C15.5384 1.057 17.7539 4.13036 17.2243 7.39266C16.6951 10.655 13.6212 12.8705 10.3589 12.3408C7.09661 11.8117 4.88109 8.73778 5.41077 5.47548C5.94044 2.2137 9.0138 -0.00182557 12.2761 0.527324Z" fill="#59219E"/>
<path d="M22.2363 25.4463C22.2353 25.7268 22.1238 25.9953 21.9254 26.1937C21.7271 26.3921 21.458 26.5041 21.178 26.5046H1.45869C1.17815 26.5035 0.909652 26.3921 0.711286 26.1937C0.51292 25.9953 0.400914 25.7263 0.400391 25.4463C0.400391 22.5509 1.55081 19.7738 3.59832 17.7262C5.64583 15.6787 8.42295 14.5283 11.3184 14.5283C14.2138 14.5283 16.9909 15.6787 19.0384 17.7262C21.0859 19.7738 22.2363 22.5509 22.2363 25.4463Z" fill="#59219E"/>
</svg>
