<svg width="14" height="17" viewBox="0 0 14 17" fill="none" xmlns="http://www.w3.org/2000/svg">
<path d="M7.49791 0.834331C9.42947 1.14794 10.7412 2.96763 10.4276 4.89919C10.1143 6.83075 8.29433 8.14252 6.36277 7.82891C4.43121 7.51561 3.11944 5.69561 3.43305 3.76405C3.74666 1.8328 5.56635 0.52103 7.49791 0.834331Z" fill="#59219E"/>
<path d="M13.3936 15.5884C13.3929 15.7545 13.3269 15.9135 13.2095 16.0309C13.092 16.1484 12.9327 16.2147 12.767 16.215H1.09145C0.925344 16.2144 0.766369 16.1484 0.64892 16.0309C0.531471 15.9135 0.465154 15.7542 0.464844 15.5884C0.464844 13.8741 1.14599 12.2298 2.35829 11.0175C3.57059 9.80517 5.21487 9.12402 6.9292 9.12402C8.64352 9.12402 10.2878 9.80517 11.5001 11.0175C12.7124 12.2298 13.3936 13.8741 13.3936 15.5884Z" fill="#59219E"/>
</svg>
