<svg width="54" height="54" viewBox="0 0 54 54" fill="none" xmlns="http://www.w3.org/2000/svg">
<path fill-rule="evenodd" clip-rule="evenodd" d="M0 16.4907V37.774C0 38.4138 0.266982 39.0545 0.799993 39.5341L15.9493 53.1369C16.3765 53.564 16.9629 53.8301 17.6027 53.8301H35.7928C36.3258 53.8301 36.9132 53.6165 37.3394 53.1903L52.4887 39.5875C53.0217 39.1604 53.3955 38.5205 53.3955 37.774V16.4907C53.3955 15.8509 53.1285 15.2101 52.5955 14.7305L37.4471 1.12777C37.02 0.700599 36.4336 0.43457 35.7937 0.43457H17.6037C17.0173 0.43457 16.4833 0.648156 16.0027 1.02098L0.906786 14.6237C0.320379 15.1043 0 15.7441 0 16.4907ZM16.6435 22.0916C15.6833 21.1848 15.6833 19.6382 16.6435 18.7305L18.2969 17.0771C19.2037 16.1169 20.7502 16.1169 21.658 17.0771L26.6725 22.0916L31.7404 17.0771C32.6472 16.1169 34.1413 16.1169 35.1015 17.0771L36.7549 18.7305C37.6617 19.6373 37.6617 21.1839 36.7549 22.0916L31.7404 27.1061L36.7549 32.174C37.6617 33.0808 37.6617 34.5749 36.7549 35.5351L35.1015 37.1885C34.1413 38.0953 32.6481 38.0953 31.7404 37.1885L26.6725 32.174L21.658 37.1885C20.7512 38.0953 19.2046 38.0953 18.2969 37.1885L16.6435 35.5351C15.6833 34.5749 15.6833 33.0817 16.6435 32.174L21.658 27.1061L16.6435 22.0916Z" fill="#FF0000"/>
</svg>
