<svg width="39" height="39" viewBox="0 0 39 39" fill="none" xmlns="http://www.w3.org/2000/svg">
<path d="M18.9137 12.5666L13.5111 17.9655L10.0858 14.5403C9.79702 14.2515 9.32674 14.2515 9.03791 14.5403C8.74908 14.8291 8.74908 15.2994 9.03791 15.5882L12.989 19.5356C13.2778 19.8244 13.7481 19.8244 14.0369 19.5356L19.9616 13.6109C20.2357 13.3072 20.2134 12.8406 19.9098 12.5666C19.6284 12.3111 19.1951 12.3111 18.9137 12.5666Z" fill="#59219E"/>
<path d="M37.2732 10.498H24.3128C23.3945 10.498 22.6502 11.246 22.6465 12.1644V36.9742C22.6465 37.8925 23.3945 38.6368 24.3128 38.6405H37.2732C38.1915 38.6405 38.9358 37.8925 38.9395 36.9742V12.1644C38.9395 11.246 38.1915 10.5017 37.2732 10.498ZM37.4583 36.9742C37.4583 37.0742 37.3731 37.1556 37.2732 37.1593H24.3128C24.2128 37.1593 24.1314 37.0742 24.1277 36.9742V12.1644C24.1277 12.0644 24.2128 11.9829 24.3128 11.9792H37.2732C37.3731 11.9792 37.4546 12.0644 37.4583 12.1644V36.9742Z" fill="#59219E"/>
<path d="M30.7928 14.9402C31.2019 14.9402 31.5334 14.6086 31.5334 14.1996C31.5334 13.7906 31.2019 13.459 30.7928 13.459C30.3838 13.459 30.0522 13.7906 30.0522 14.1996C30.0522 14.6086 30.3838 14.9402 30.7928 14.9402Z" fill="#59219E"/>
<path d="M20.4247 26.7902H4.06872C2.87636 26.7902 1.90989 25.8237 1.90989 24.6314V7.53482H27.09V8.27541C27.09 8.68273 27.4233 9.016 27.8306 9.016C28.2379 9.016 28.5712 8.68273 28.5712 8.27541V3.76891C28.5712 1.75821 26.9419 0.132609 24.9312 0.128906H4.06872C2.05801 0.128906 0.428711 1.75821 0.428711 3.76891V24.6314C0.428711 26.6421 2.05801 28.2677 4.06872 28.2714H20.4247C20.832 28.2714 21.1653 27.9381 21.1653 27.5308C21.1653 27.1235 20.832 26.7902 20.4247 26.7902ZM4.06872 1.61009H24.9312C26.1235 1.61009 27.09 2.57656 27.09 3.76891V6.05364H1.90989V3.76891C1.90989 2.57656 2.87636 1.61009 4.06872 1.61009Z" fill="#59219E"/>
<path d="M34.7143 21.8571L29.9004 26.671L26.8677 23.6382C26.5641 23.3642 26.0975 23.3864 25.8235 23.6901C25.568 23.9715 25.568 24.4048 25.8235 24.6862L29.3783 28.241C29.6671 28.5298 30.1337 28.5298 30.4225 28.241L35.7548 22.9088C36.0584 22.6347 36.0807 22.1682 35.8066 21.8645C35.5326 21.5609 35.066 21.5387 34.7624 21.8127C34.7439 21.8275 34.7254 21.846 34.7106 21.8645H34.7143V21.8571Z" fill="#59219E"/>
</svg>
