<svg width="185" height="157" viewBox="0 0 185 157" fill="none" xmlns="http://www.w3.org/2000/svg">
<path d="M141.237 64.2063C139.963 57.9903 136.295 42.9055 128.536 29.5112C128.574 29.3817 128.616 29.2522 128.651 29.1192C129.225 27.0052 129.467 24.8633 129.369 22.7913C129.278 20.9258 128.917 19.2738 128.371 17.8633C127.867 16.5614 127.195 15.4379 126.415 14.5174C125.673 13.6494 124.819 12.9424 123.877 12.4244C122.967 11.9239 121.956 11.5844 120.86 11.4444C119.768 11.3044 118.666 11.3709 117.581 11.6159C116.58 11.8399 115.572 12.2284 114.589 12.7534C114.305 12.5329 114.022 12.3089 113.735 12.0919C106.014 5.694 97.6978 0.12207 92.1433 0.12207C86.2704 0.12207 77.692 6.09999 70.0341 12.6729C69.1031 12.1899 68.1511 11.8329 67.2027 11.6194C66.1177 11.3779 65.0152 11.3114 63.9232 11.4479C62.8277 11.5879 61.8162 11.9239 60.9062 12.4279C59.9682 12.9459 59.1108 13.6529 58.3688 14.5209C57.5848 15.4414 56.9163 16.5649 56.4123 17.8668C55.8663 19.2773 55.5058 20.9293 55.4148 22.7948C55.3168 24.8633 55.5583 27.0087 56.1323 29.1227C56.1673 29.2522 56.2093 29.3852 56.2478 29.5147C48.4884 42.909 44.8204 57.9938 43.5465 64.2098C43.0005 65.9177 42.71 67.6782 42.71 69.4737C42.71 82.196 57.0353 92.9864 76.8695 96.7523C82.1195 98.0263 88.5594 99.3563 92.5598 99.3563C96.8543 99.3563 103.606 97.8863 108.726 96.5914C128.137 92.6854 142.07 82.021 142.07 69.4737C142.07 67.6747 141.78 65.9142 141.234 64.2098L141.237 64.2063Z" fill="white"/>
<path d="M122.611 58.8862C115.611 55.4422 104.73 52.9678 92.5077 52.9678C92.4867 52.9678 92.4692 52.9678 92.4482 52.9678C92.4272 52.9678 92.4097 52.9678 92.3887 52.9678C79.6243 52.9678 68.3195 55.6697 61.3756 59.3517C61.3581 59.4077 61.3511 59.4357 61.3511 59.4357C61.3511 59.4357 67.126 64.7171 69.8595 66.3236C72.5894 67.9301 75.0044 69.1936 79.4178 66.7821C82.5083 65.0951 85.2873 62.7887 88.5877 61.8332C89.5432 61.7702 90.5827 61.6652 91.7027 61.5007C91.9512 61.4657 92.1962 61.4412 92.4377 61.4237C92.6792 61.4412 92.9242 61.4657 93.1727 61.5007C94.2927 61.6617 95.3356 61.7667 96.2876 61.8332C99.5881 62.7887 102.371 65.0951 105.458 66.7821C109.867 69.1936 112.282 67.9301 115.016 66.3236C117.543 64.8361 122.67 60.2092 123.426 59.5232C123.16 59.3062 122.887 59.0962 122.607 58.8862H122.611Z" fill="#F99B28"/>
<path d="M92.602 73.1765C92.602 73.1765 92.525 73.215 92.392 73.285C92.259 73.215 92.182 73.1765 92.182 73.1765C92.182 73.1765 81.4301 73.1765 81.8571 78.1255C82.2841 83.0744 86.1236 87.9358 92.0945 88.2788C92.1015 88.2788 92.112 88.2788 92.119 88.2788C92.2065 88.2823 92.2975 88.2788 92.3885 88.2788C92.4795 88.2788 92.5705 88.2823 92.658 88.2788C92.665 88.2788 92.6755 88.2788 92.6825 88.2788C98.6534 87.9358 102.493 83.0744 102.92 78.1255C103.347 73.1765 92.595 73.1765 92.595 73.1765H92.602Z" fill="#59209F"/>
<path d="M141.237 64.2063C139.963 57.9903 136.295 42.9055 128.536 29.5112C128.574 29.3817 128.616 29.2522 128.651 29.1192C129.225 27.0052 129.467 24.8633 129.369 22.7913C129.278 20.9258 128.917 19.2738 128.371 17.8633C127.867 16.5614 127.195 15.4379 126.415 14.5174C125.673 13.6494 124.819 12.9424 123.877 12.4244C122.967 11.9239 121.956 11.5844 120.86 11.4444C119.768 11.3044 118.666 11.3709 117.581 11.6159C116.58 11.8399 115.572 12.2284 114.589 12.7534C114.305 12.5329 114.022 12.3089 113.735 12.0919C106.014 5.694 97.6978 0.12207 92.1433 0.12207C86.2704 0.12207 77.692 6.09999 70.0341 12.6729C69.1031 12.1899 68.1511 11.8329 67.2027 11.6194C66.1177 11.3779 65.0152 11.3114 63.9232 11.4479C62.8277 11.5879 61.8162 11.9239 60.9062 12.4279C59.9682 12.9459 59.1108 13.6529 58.3688 14.5209C57.5848 15.4414 56.9163 16.5649 56.4123 17.8668C55.8663 19.2773 55.5058 20.9293 55.4148 22.7948C55.3168 24.8633 55.5583 27.0087 56.1323 29.1227C56.1673 29.2522 56.2093 29.3852 56.2478 29.5147C48.4884 42.909 44.8204 57.9938 43.5465 64.2098C43.0005 65.9177 42.71 67.6782 42.71 69.4737C42.71 82.196 57.0353 92.9864 76.8695 96.7523C82.1195 98.0263 88.5594 99.3563 92.5598 99.3563C96.8543 99.3563 103.606 97.8863 108.726 96.5914C128.137 92.6854 142.07 82.021 142.07 69.4737C142.07 67.6747 141.78 65.9142 141.234 64.2098L141.237 64.2063ZM130.741 67.4332C130.594 76.5926 109.888 88.9929 109.888 88.9929C109.888 88.9929 100.26 95.0479 92.4513 95.0479C84.6429 95.0479 75.0146 88.9929 75.0146 88.9929C75.0146 88.9929 54.3088 76.5926 54.1618 67.4332C54.1618 67.4087 54.1583 67.3842 54.1583 67.3597C54.1583 62.8413 61.2947 58.1583 72.0326 55.4074C71.8121 55.9184 71.6896 56.4819 71.6896 57.0699C71.6896 59.4008 73.5796 61.2943 75.914 61.2943C78.2485 61.2943 80.1385 59.4043 80.1385 57.0699C80.1385 55.8659 79.631 54.7809 78.8225 54.0144C83.04 53.3459 87.6144 52.9679 92.3953 52.9679C92.4163 52.9679 92.4338 52.9679 92.4548 52.9679C92.4758 52.9679 92.4933 52.9679 92.5143 52.9679C97.3058 52.9679 101.891 53.3494 106.115 54.0179C105.223 54.7914 104.656 55.9324 104.656 57.2064C104.656 59.5373 106.546 61.4308 108.88 61.4308C111.215 61.4308 113.105 59.5408 113.105 57.2064C113.105 56.5414 112.947 55.9149 112.671 55.3549C123.524 58.0988 130.751 62.8098 130.751 67.3597C130.751 67.3842 130.751 67.4087 130.748 67.4332H130.741Z" fill="#59209F"/>
<path opacity="0.3" d="M130.713 66.8554C130.713 66.8274 130.706 66.7959 130.703 66.7679C130.682 66.6069 130.65 66.4459 130.612 66.2849C130.605 66.2534 130.594 66.2219 130.587 66.1904C130.545 66.0259 130.493 65.8614 130.43 65.697C130.426 65.683 130.419 65.6725 130.412 65.6585C130.349 65.4975 130.279 65.3365 130.202 65.179C130.192 65.1545 130.181 65.13 130.167 65.109C130.087 64.948 129.996 64.7835 129.898 64.6225C129.88 64.591 129.859 64.5595 129.842 64.528C129.74 64.367 129.632 64.2025 129.513 64.0415C129.499 64.0205 129.481 64.003 129.467 63.982C129.348 63.8245 129.222 63.6635 129.086 63.506C129.072 63.492 129.061 63.478 129.051 63.4605C128.911 63.296 128.76 63.135 128.603 62.974C128.575 62.946 128.55 62.918 128.522 62.89C128.365 62.729 128.2 62.5715 128.025 62.414C128.001 62.393 127.976 62.3685 127.952 62.3475C127.584 62.0185 127.185 61.693 126.755 61.371C126.727 61.35 126.695 61.3255 126.667 61.3045C126.454 61.147 126.237 60.993 126.009 60.839C125.978 60.818 125.946 60.797 125.918 60.776C125.439 60.454 124.931 60.139 124.392 59.831C124.368 59.817 124.347 59.803 124.322 59.789C124.056 59.6385 123.78 59.488 123.5 59.3375C123.468 59.32 123.433 59.3025 123.402 59.285C123.111 59.1345 122.817 58.984 122.516 58.837C122.516 58.837 122.513 58.837 122.509 58.837C122.194 58.683 121.869 58.529 121.536 58.3785C121.529 58.3785 121.526 58.3715 121.519 58.3715C121.197 58.2245 120.868 58.081 120.532 57.941C120.504 57.9305 120.476 57.9166 120.444 57.9061C120.108 57.7661 119.762 57.6261 119.412 57.4896C119.401 57.4896 119.394 57.4826 119.384 57.4791C118.663 57.1991 117.914 56.9261 117.137 56.6671C117.116 56.6601 117.098 56.6531 117.077 56.6461C116.692 56.5166 116.304 56.3906 115.905 56.2681C115.894 56.2646 115.88 56.2611 115.87 56.2576C115.058 56.0056 114.221 55.7641 113.357 55.5366C113.353 55.5366 113.346 55.5366 113.343 55.5331C112.916 55.4211 112.478 55.3091 112.041 55.2041C112.027 55.2006 112.013 55.1971 111.999 55.1936C110.669 54.8716 109.283 54.5776 107.855 54.3186C107.841 54.3186 107.823 54.3116 107.809 54.3116C106.378 54.0526 104.901 53.8286 103.385 53.6396C103.371 53.6396 103.357 53.6396 103.343 53.6361C102.839 53.5731 102.328 53.5136 101.817 53.4611C98.839 53.1461 95.7241 52.9746 92.5146 52.9746C92.4936 52.9746 92.4761 52.9746 92.4551 52.9746C92.4341 52.9746 92.4166 52.9746 92.3956 52.9746C75.9493 52.9746 61.9285 57.4581 56.5316 62.75C56.3391 62.939 56.1606 63.128 55.9891 63.317C55.8211 63.506 55.6636 63.6915 55.5201 63.8805C55.5166 63.884 55.5131 63.891 55.5096 63.8945C55.0791 64.4545 54.7501 65.018 54.5226 65.5849C54.5156 65.6024 54.5051 65.6235 54.4981 65.641C54.4316 65.8159 54.3756 65.9874 54.3266 66.1624C54.3196 66.1904 54.3126 66.2149 54.3056 66.2429C54.2601 66.4144 54.2251 66.5859 54.2041 66.7574C54.2041 66.7819 54.2006 66.8029 54.1971 66.8274C54.1761 67.0059 54.1621 67.1844 54.1621 67.3629C54.1621 67.3874 54.1621 67.4119 54.1656 67.4364C54.1656 67.5694 54.1761 67.7024 54.1866 67.8354C54.1866 67.8774 54.1971 67.9229 54.2006 67.9649C54.2111 68.0559 54.2216 68.1504 54.2321 68.2414C54.2391 68.2904 54.2461 68.3429 54.2566 68.3919C54.2706 68.4794 54.2881 68.5669 54.3056 68.6544C54.3161 68.7034 54.3266 68.7559 54.3371 68.8049C54.3581 68.8994 54.3791 68.9939 54.4036 69.0849C54.4141 69.1304 54.4246 69.1724 54.4386 69.2179C54.4736 69.3474 54.5121 69.4769 54.5541 69.6064C54.5541 69.6134 54.5576 69.6239 54.5611 69.6309C54.6066 69.7709 54.6556 69.9109 54.7081 70.0509C54.7221 70.0929 54.7396 70.1314 54.7571 70.1734C54.7956 70.2749 54.8376 70.3729 54.8796 70.4744C54.9006 70.5234 54.9216 70.5724 54.9426 70.6249C54.9846 70.7194 55.0266 70.8104 55.0686 70.9049C55.0931 70.9539 55.1141 71.0064 55.1386 71.0554C55.1876 71.1534 55.2366 71.2514 55.2856 71.3494C55.3066 71.3914 55.3311 71.4369 55.3521 71.4789C55.4221 71.6084 55.4921 71.7414 55.5656 71.8709C55.5726 71.8814 55.5761 71.8919 55.5831 71.9024C55.6636 72.0459 55.7511 72.1929 55.8386 72.3364C55.8596 72.3714 55.8841 72.4064 55.9051 72.4414C55.9716 72.5499 56.0381 72.6584 56.1081 72.7669C56.1396 72.8124 56.1676 72.8614 56.1991 72.9069C56.2656 73.0049 56.3321 73.1064 56.3986 73.2044C56.4301 73.2499 56.4651 73.2989 56.4966 73.3444C56.5666 73.4459 56.6401 73.5509 56.7171 73.6523C56.7451 73.6943 56.7766 73.7329 56.8046 73.7748C56.9026 73.9078 57.0041 74.0443 57.1056 74.1773C57.1126 74.1843 57.1161 74.1948 57.1231 74.2018C57.2351 74.3488 57.3506 74.4958 57.4696 74.6428C57.4906 74.6673 57.5116 74.6918 57.5326 74.7198C57.6271 74.8388 57.7251 74.9578 57.8231 75.0733C57.8581 75.1153 57.8931 75.1538 57.9246 75.1958C58.0121 75.3008 58.0996 75.4023 58.1906 75.5073C58.2291 75.5493 58.2641 75.5948 58.3026 75.6368C58.3971 75.7453 58.4916 75.8503 58.5861 75.9588C58.6176 75.9938 58.6491 76.0288 58.6806 76.0673C58.8031 76.2038 58.9255 76.3403 59.0515 76.4733C59.055 76.4768 59.0621 76.4838 59.0656 76.4873C59.202 76.6343 59.342 76.7813 59.482 76.9283C59.496 76.9423 59.51 76.9563 59.524 76.9703C59.6465 77.0963 59.769 77.2223 59.8915 77.3483C59.9265 77.3833 59.9615 77.4183 59.993 77.4533C60.098 77.5618 60.2065 77.6668 60.315 77.7753C60.3535 77.8138 60.392 77.8488 60.427 77.8873C60.5355 77.9958 60.6475 78.1008 60.756 78.2093C60.791 78.2408 60.8225 78.2723 60.8575 78.3073C60.9975 78.4403 61.1375 78.5733 61.2775 78.7063C61.2775 78.7063 61.2845 78.7133 61.288 78.7168C61.442 78.8603 61.596 79.0038 61.75 79.1473C61.757 79.1543 61.7605 79.1578 61.7675 79.1648C61.9075 79.2943 62.051 79.4238 62.1945 79.5498C62.226 79.5778 62.261 79.6093 62.2925 79.6373C62.4115 79.7423 62.527 79.8473 62.646 79.9523C62.6845 79.9873 62.723 80.0188 62.7615 80.0538C62.8805 80.1588 62.9995 80.2603 63.1185 80.3653C63.15 80.3933 63.185 80.4213 63.2165 80.4528C63.36 80.5788 63.507 80.7013 63.6505 80.8238C63.6575 80.8273 63.661 80.8343 63.668 80.8378C63.9795 81.1038 64.2945 81.3628 64.6095 81.6183C64.641 81.6463 64.676 81.6707 64.7075 81.6987C64.8265 81.7967 64.949 81.8947 65.068 81.9927C65.11 82.0242 65.1485 82.0592 65.1905 82.0907C65.3095 82.1852 65.425 82.2797 65.5405 82.3707C65.5755 82.3987 65.614 82.4302 65.649 82.4582C65.7855 82.5667 65.9185 82.6717 66.055 82.7767C66.0725 82.7907 66.0865 82.8012 66.104 82.8152C66.2615 82.9377 66.419 83.0602 66.573 83.1792C66.573 83.1792 66.573 83.1792 66.5765 83.1827C66.7235 83.2982 66.8739 83.4102 67.0209 83.5222C67.0559 83.5467 67.0874 83.5747 67.1224 83.5992C67.2344 83.6832 67.3499 83.7707 67.4619 83.8547C67.5074 83.8897 67.5529 83.9212 67.5949 83.9562C67.6999 84.0332 67.8049 84.1137 67.9064 84.1872C67.9484 84.2187 67.9939 84.2502 68.0359 84.2817C68.1514 84.3657 68.2669 84.4497 68.3789 84.5337C68.4069 84.5547 68.4349 84.5757 68.4629 84.5967C68.6064 84.7017 68.7534 84.8067 68.8934 84.9082C68.9004 84.9117 68.9074 84.9187 68.9144 84.9222C69.0439 85.0167 69.1734 85.1077 69.3029 85.1987C69.3484 85.2302 69.3939 85.2617 69.4359 85.2932C69.5269 85.3597 69.6179 85.4227 69.7089 85.4857C69.7579 85.5207 69.8069 85.5557 69.8559 85.5907C69.9399 85.6502 70.0239 85.7097 70.1079 85.7692C70.1569 85.8042 70.2059 85.8357 70.2514 85.8707C70.3354 85.9302 70.4194 85.9862 70.4999 86.0457C70.5454 86.0772 70.5909 86.1087 70.6364 86.1402C70.7344 86.2067 70.8289 86.2732 70.9234 86.3397C70.9969 86.3887 71.0669 86.4377 71.1404 86.4867C71.2069 86.5322 71.2769 86.5777 71.3399 86.6232C71.4029 86.6652 71.4624 86.7072 71.5219 86.7457C71.5744 86.7807 71.6269 86.8157 71.6794 86.8507C71.7424 86.8927 71.8019 86.9347 71.8649 86.9767C71.9104 87.0082 71.9559 87.0397 72.0014 87.0677C72.0679 87.1132 72.1309 87.1552 72.1974 87.1972C72.2289 87.2182 72.2639 87.2392 72.2954 87.2637C72.6454 87.4947 72.9709 87.7082 73.2614 87.8972C73.2684 87.9007 73.2754 87.9042 73.2789 87.9077C73.3559 87.9567 73.4294 88.0057 73.5029 88.0512C70.1639 84.6597 63.7135 78.2128 61.351 70.4919C60.5985 68.0279 59.5485 65.088 62.73 62.6975C65.4355 60.664 77.4893 57.4021 82.4593 56.6916C86.8237 56.0686 90.4111 56.2401 94.6146 57.3216C98.6955 58.3715 103.739 62.5925 104.39 63.219C108.264 66.9394 113.444 70.3414 114.13 75.5983C115.142 83.3157 104.691 90.3471 98.0516 94.2041C103.053 92.8531 107.722 90.2561 109.297 89.3287C109.297 89.3287 109.297 89.3287 109.3 89.3287C109.468 89.2307 109.598 89.1502 109.692 89.0942C109.703 89.0872 109.713 89.0802 109.724 89.0767C109.745 89.0627 109.762 89.0522 109.78 89.0417C109.794 89.0347 109.808 89.0242 109.818 89.0172C109.825 89.0137 109.832 89.0067 109.839 89.0032C109.85 88.9962 109.86 88.9892 109.86 88.9892C109.86 88.9892 130.566 76.5888 130.713 67.4294C130.713 67.4049 130.717 67.3804 130.717 67.3559C130.717 67.1879 130.703 67.0199 130.685 66.8519L130.713 66.8554Z" fill="#59209F"/>
<path d="M8.98126 148.625C7.31528 148.625 5.8173 148.177 4.49082 147.281C3.16433 146.385 2.11785 145.146 1.34786 143.568C0.577866 141.989 0.192871 140.19 0.192871 138.171C0.192871 136.151 0.570866 134.282 1.33036 132.714C2.08635 131.15 3.13633 129.918 4.47332 129.022C5.8103 128.126 7.35378 127.678 9.09326 127.678C10.0277 127.678 10.8852 127.804 11.6692 128.056C12.4532 128.308 13.1322 128.675 13.7132 129.155C14.2942 129.634 14.7982 130.177 15.2287 130.782C15.6592 131.388 16.0127 132.046 16.2892 132.753L14.8507 132.676V128.091H21.7841V148.282H14.7002V143.358L16.2542 143.435C16.0267 144.166 15.6907 144.849 15.2497 145.479C14.8087 146.109 14.2697 146.658 13.6397 147.127C13.0097 147.596 12.3062 147.96 11.5362 148.226C10.7662 148.492 9.91225 148.625 8.97776 148.625H8.98126ZM10.9902 142.829C11.7987 142.829 12.4917 142.647 13.0727 142.28C13.6537 141.912 14.1017 141.377 14.4167 140.67C14.7317 139.963 14.8892 139.13 14.8892 138.171C14.8892 137.212 14.7317 136.34 14.4167 135.633C14.1017 134.926 13.6537 134.391 13.0727 134.023C12.4917 133.656 11.7987 133.474 10.9902 133.474C10.1817 133.474 9.49225 133.656 8.92526 134.023C8.35827 134.391 7.92077 134.926 7.61978 135.633C7.31528 136.34 7.16478 137.187 7.16478 138.171C7.16478 139.154 7.31528 139.963 7.61978 140.67C7.92427 141.377 8.35827 141.912 8.92526 142.28C9.49225 142.647 10.1817 142.829 10.9902 142.829Z" fill="#59209F"/>
<path d="M35.157 148.664C33.162 148.664 31.3736 148.209 29.7986 147.299C28.2201 146.389 26.9776 145.146 26.0676 143.568C25.1576 141.989 24.7026 140.19 24.7026 138.171C24.7026 136.151 25.1576 134.352 26.0676 132.774C26.9776 131.195 28.2201 129.953 29.7986 129.043C31.3771 128.133 33.162 127.678 35.157 127.678C36.977 127.678 38.6465 127.968 40.1759 128.549C41.7019 129.13 42.9234 129.963 43.8299 131.048L40.0044 135.595C39.7279 135.241 39.3745 134.919 38.944 134.629C38.5135 134.338 38.041 134.111 37.523 133.946C37.005 133.782 36.431 133.701 35.801 133.701C34.968 133.701 34.2365 133.89 33.603 134.268C32.973 134.646 32.4865 135.171 32.1435 135.84C31.804 136.508 31.6325 137.275 31.6325 138.132C31.6325 138.99 31.797 139.749 32.126 140.404C32.455 141.062 32.9415 141.59 33.5855 141.996C34.2295 142.402 34.968 142.602 35.801 142.602C36.431 142.602 37.005 142.525 37.523 142.374C38.041 142.224 38.5065 142.007 38.923 141.73C39.3395 141.454 39.6999 141.125 40.0009 140.747L43.8264 145.332C42.8919 146.392 41.6599 147.215 40.1339 147.796C38.6045 148.377 36.9455 148.667 35.1535 148.667L35.157 148.664Z" fill="#59209F"/>
<path d="M55.0403 148.664C53.0453 148.664 51.2569 148.209 49.6819 147.299C48.1034 146.389 46.8609 145.146 45.9509 143.568C45.0409 141.989 44.5859 140.19 44.5859 138.171C44.5859 136.151 45.0409 134.352 45.9509 132.774C46.8609 131.195 48.1034 129.953 49.6819 129.043C51.2604 128.133 53.0453 127.678 55.0403 127.678C56.8603 127.678 58.5298 127.968 60.0592 128.549C61.5852 129.13 62.8067 129.963 63.7132 131.048L59.8877 135.595C59.6112 135.241 59.2578 134.919 58.8273 134.629C58.3968 134.338 57.9243 134.111 57.4063 133.946C56.8883 133.782 56.3143 133.701 55.6843 133.701C54.8513 133.701 54.1198 133.89 53.4863 134.268C52.8563 134.646 52.3698 135.171 52.0268 135.84C51.6874 136.508 51.5159 137.275 51.5159 138.132C51.5159 138.99 51.6803 139.749 52.0093 140.404C52.3383 141.062 52.8248 141.59 53.4688 141.996C54.1128 142.402 54.8513 142.602 55.6843 142.602C56.3143 142.602 56.8883 142.525 57.4063 142.374C57.9243 142.224 58.3898 142.007 58.8063 141.73C59.2228 141.454 59.5832 141.125 59.8842 140.747L63.7097 145.332C62.7752 146.392 61.5432 147.215 60.0172 147.796C58.4878 148.377 56.8288 148.667 55.0368 148.667L55.0403 148.664Z" fill="#59209F"/>
<path d="M78.7565 148.702C77.822 148.702 76.9365 148.583 76.1035 148.342C75.2705 148.104 74.525 147.775 73.867 147.358C73.209 146.942 72.6665 146.455 72.2395 145.899C71.809 145.342 71.5325 144.751 71.4066 144.117L72.845 143.739L72.3515 148.247H65.9116V120.254H72.9955V132.984L71.48 132.49C71.6305 131.808 71.928 131.178 72.369 130.597C72.81 130.016 73.349 129.505 73.979 129.064C74.609 128.623 75.316 128.283 76.1 128.042C76.884 127.804 77.703 127.681 78.564 127.681C80.3069 127.681 81.8399 128.129 83.1664 129.025C84.4929 129.921 85.5394 131.164 86.3094 132.756C87.0794 134.349 87.4643 136.165 87.4643 138.209C87.4643 140.253 87.0864 142.066 86.3269 143.645C85.5709 145.223 84.5349 146.462 83.2224 147.358C81.9099 148.254 80.4189 148.702 78.753 148.702H78.7565ZM76.7125 142.906C77.521 142.906 78.2105 142.71 78.7775 142.318C79.3444 141.926 79.7889 141.384 80.1039 140.691C80.4189 139.998 80.5764 139.168 80.5764 138.209C80.5764 137.25 80.4259 136.379 80.1214 135.672C79.8169 134.965 79.376 134.429 78.795 134.062C78.214 133.698 77.521 133.512 76.7125 133.512C75.904 133.512 75.211 133.698 74.63 134.062C74.049 134.429 73.601 134.965 73.286 135.672C72.971 136.379 72.8135 137.226 72.8135 138.209C72.8135 139.193 72.971 139.998 73.286 140.691C73.601 141.387 74.049 141.93 74.63 142.318C75.211 142.71 75.904 142.906 76.7125 142.906Z" fill="#F99B28"/>
<path d="M97.201 148.702C95.6855 148.702 94.3976 148.38 93.3371 147.736C92.2766 147.092 91.4681 146.165 90.9116 144.954C90.3551 143.743 90.0786 142.276 90.0786 140.561V128.098H97.124V139.84C97.124 140.498 97.236 141.051 97.4635 141.506C97.691 141.961 98.006 142.308 98.412 142.549C98.8145 142.791 99.308 142.91 99.889 142.91C100.344 142.91 100.753 142.847 101.121 142.721C101.485 142.595 101.796 142.399 102.048 142.133C102.3 141.867 102.503 141.566 102.654 141.223C102.804 140.883 102.881 140.509 102.881 140.106V128.098H109.927V148.289H103.41L103.032 144.198L104.358 143.743C104.078 144.677 103.588 145.524 102.881 146.28C102.174 147.036 101.327 147.631 100.344 148.062C99.3605 148.492 98.3105 148.706 97.201 148.706V148.702Z" fill="#F99B28"/>
<path d="M121.711 148.702C120.017 148.702 118.509 148.254 117.186 147.358C115.859 146.462 114.82 145.223 114.06 143.645C113.304 142.066 112.923 140.253 112.923 138.209C112.923 136.165 113.308 134.352 114.078 132.774C114.848 131.195 115.901 129.953 117.242 129.043C118.579 128.133 120.108 127.678 121.827 127.678C122.712 127.678 123.556 127.804 124.364 128.056C125.173 128.308 125.897 128.661 126.541 129.116C127.185 129.571 127.728 130.1 128.169 130.709C128.61 131.314 128.893 131.958 129.023 132.641L127.395 133.096V120.254H134.479V148.286H128.078L127.584 143.778L128.984 144.044C128.883 144.702 128.617 145.307 128.19 145.86C127.759 146.417 127.224 146.91 126.58 147.337C125.936 147.768 125.19 148.1 124.343 148.342C123.496 148.583 122.621 148.702 121.711 148.702ZM123.72 142.945C124.529 142.945 125.222 142.749 125.803 142.357C126.384 141.965 126.825 141.422 127.129 140.729C127.434 140.036 127.584 139.196 127.584 138.209C127.584 137.222 127.434 136.372 127.129 135.651C126.825 134.93 126.384 134.387 125.803 134.023C125.222 133.656 124.529 133.474 123.72 133.474C122.912 133.474 122.219 133.656 121.638 134.023C121.057 134.391 120.616 134.933 120.311 135.651C120.007 136.368 119.856 137.222 119.856 138.209C119.856 139.196 120.007 140.033 120.311 140.729C120.616 141.426 121.057 141.968 121.638 142.357C122.219 142.749 122.912 142.945 123.72 142.945Z" fill="#F99B28"/>
<path d="M145.878 148.702C144.184 148.702 142.676 148.254 141.353 147.358C140.026 146.462 138.987 145.223 138.227 143.645C137.471 142.066 137.09 140.253 137.09 138.209C137.09 136.165 137.475 134.352 138.245 132.774C139.015 131.195 140.068 129.953 141.409 129.043C142.746 128.133 144.275 127.678 145.994 127.678C146.879 127.678 147.723 127.804 148.531 128.056C149.34 128.308 150.064 128.661 150.708 129.116C151.352 129.571 151.895 130.1 152.336 130.709C152.777 131.314 153.06 131.958 153.19 132.641L151.562 133.096V120.254H158.646V148.286H152.245L151.751 143.778L153.151 144.044C153.05 144.702 152.784 145.307 152.357 145.86C151.926 146.417 151.391 146.91 150.747 147.337C150.103 147.768 149.357 148.1 148.51 148.342C147.663 148.583 146.788 148.702 145.878 148.702ZM147.887 142.945C148.696 142.945 149.389 142.749 149.97 142.357C150.551 141.965 150.992 141.422 151.296 140.729C151.601 140.036 151.751 139.196 151.751 138.209C151.751 137.222 151.601 136.372 151.296 135.651C150.992 134.93 150.551 134.387 149.97 134.023C149.389 133.656 148.696 133.474 147.887 133.474C147.079 133.474 146.386 133.656 145.805 134.023C145.224 134.391 144.783 134.933 144.478 135.651C144.174 136.368 144.023 137.222 144.023 138.209C144.023 139.196 144.174 140.033 144.478 140.729C144.783 141.426 145.224 141.968 145.805 142.357C146.386 142.749 147.079 142.945 147.887 142.945Z" fill="#F99B28"/>
<path d="M164.893 156.997L169.741 145.556L169.818 148.66L160.235 128.091H168.113L171.484 136.12C171.76 136.75 172.009 137.376 172.222 137.996C172.436 138.615 172.593 139.203 172.695 139.756L171.9 140.362C172.002 140.033 172.152 139.581 172.355 138.997C172.558 138.416 172.786 137.747 173.038 136.988L176.107 128.087H184.024L175.274 148.279L171.75 156.99H164.893V156.997Z" fill="#F99B28"/>
</svg>
