<svg width="131" height="131" viewBox="0 0 131 131" fill="none" xmlns="http://www.w3.org/2000/svg">
<path d="M27.949 15.2371C26.5157 15.4205 25.1923 15.8607 24.0017 16.5209C22.7699 17.1995 21.6525 18.1257 20.6817 19.2628C19.656 20.4687 18.7813 21.9405 18.1219 23.6461C17.4076 25.4939 16.9359 27.658 16.8168 30.1019C16.6886 32.8116 17.0046 35.6223 17.7556 38.3916C18.589 41.4636 19.9399 44.4485 21.7624 47.1032C23.7498 50.0056 26.2318 52.4357 29.048 54.0588C32.0108 55.7644 35.1842 56.4888 38.2752 55.9432C41.3433 55.4022 43.8389 53.6966 45.6523 51.1931C47.3558 48.8456 48.3815 45.8974 48.7479 42.7016C49.0822 39.7901 48.8669 36.7319 48.1617 33.7516C47.5252 31.0647 46.4949 28.4604 45.1211 26.0533C43.8801 23.88 42.4514 22.0414 40.9494 20.542C39.5573 19.1528 38.0783 18.0248 36.5808 17.1766C35.1613 16.3651 33.6959 15.7873 32.2397 15.4618C30.8202 15.1454 29.3777 15.0583 27.949 15.2371Z" fill="#59209F"/>
<path d="M102.438 15.2373C103.871 15.4207 105.194 15.8609 106.385 16.5212C107.575 17.1814 108.734 18.1259 109.705 19.263C110.731 20.4689 111.605 21.9407 112.265 23.6463C112.979 25.4941 113.451 27.6583 113.57 30.1021C113.698 32.8119 113.382 35.6225 112.631 38.3919C111.797 41.4638 110.447 44.4487 108.624 47.1035C106.637 50.0058 104.155 52.4359 101.338 54.059C98.3757 55.7646 95.2023 56.4891 92.1113 55.9434C89.0432 55.4024 86.5476 53.6968 84.7342 51.1933C83.0307 48.8458 82.0049 45.8976 81.6386 42.7018C81.3043 39.7903 81.5195 36.7321 82.2248 33.7518C82.8613 31.0649 83.8916 28.4606 85.2654 26.0535C86.5063 23.8802 87.9351 22.0416 89.4371 20.5423C90.8291 19.153 92.3082 18.0251 93.8056 17.1768C95.3031 16.3286 96.6906 15.7876 98.1468 15.462C99.603 15.1365 101.009 15.0585 102.438 15.2373Z" fill="#59209F"/>
<path d="M64.3102 66.0812C48.4156 66.0812 34.2566 70.1528 25.0981 76.5031C24.7684 77.5072 24.5898 78.0987 24.5898 78.0987C24.5898 78.0987 32.1456 85.0175 35.722 87.122C39.2938 89.2266 42.4535 90.8818 48.2279 87.7227C52.2713 85.5127 55.9073 82.4911 60.2255 81.2394C61.4756 81.1569 62.8356 81.0193 64.301 80.8038C64.6261 80.758 64.9467 80.7259 65.2626 80.703C65.5786 80.7259 65.8992 80.758 66.2243 80.8038C67.6896 81.0148 69.0542 81.1523 70.2998 81.2394C74.618 82.4911 78.2585 85.5127 82.2974 87.7227C88.0672 90.8818 91.2269 89.2266 94.8033 87.122C98.1095 85.1734 104.818 79.112 105.807 78.2133C96.8227 70.891 81.5876 66.0767 64.3102 66.0767V66.0812Z" fill="#F99B28"/>
<path d="M129.101 84.3527C126.857 73.3898 118.94 41.3587 99.9174 22.0373H100.05C99.9494 21.9639 99.8487 21.8905 99.7434 21.8172C99.5968 21.6888 99.4503 21.5558 99.3038 21.4274C97.3576 19.5017 95.2969 17.709 93.1126 16.0859C83.0154 7.69979 72.1397 0.400391 64.8725 0.400391C55.6499 0.400391 41.3352 11.6705 30.1206 22.0418H30.4778C11.4511 41.3587 3.53358 73.3944 1.28975 84.3527C0.575389 86.5902 0.195312 88.8965 0.195312 91.2486C0.195312 107.915 18.9381 122.051 44.8887 126.985C51.7575 128.653 60.1833 130.396 65.4174 130.396C71.0361 130.396 79.8695 128.47 86.5689 126.774C111.965 121.657 130.195 107.686 130.195 91.2486C130.195 88.8919 129.815 86.5856 129.101 84.3527ZM115.368 88.5801C115.175 100.579 88.0846 116.824 88.0846 116.824C88.0846 116.824 75.4871 124.756 65.2709 124.756C55.0546 124.756 42.4571 116.824 42.4571 116.824C42.4571 116.824 15.3663 100.579 15.174 88.5801C15.174 88.548 15.1694 88.5159 15.1694 88.4838C15.1694 79.3091 37.5665 69.6301 65.1976 69.6301C65.2251 69.6301 65.248 69.6301 65.2754 69.6301C65.3029 69.6301 65.3258 69.6301 65.3533 69.6301C92.9798 69.6301 115.381 79.3137 115.381 88.4838C115.381 88.5159 115.381 88.548 115.377 88.5801H115.368Z" fill="#59209F"/>
<path d="M43.6326 80.538C46.6852 80.538 49.1597 78.0603 49.1597 75.0039C49.1597 71.9475 46.6852 69.4697 43.6326 69.4697C40.5801 69.4697 38.1055 71.9475 38.1055 75.0039C38.1055 78.0603 40.5801 80.538 43.6326 80.538Z" fill="#59209F"/>
<path d="M86.7615 80.7168C89.8141 80.7168 92.2887 78.239 92.2887 75.1826C92.2887 72.1262 89.8141 69.6484 86.7615 69.6484C83.709 69.6484 81.2344 72.1262 81.2344 75.1826C81.2344 78.239 83.709 80.7168 86.7615 80.7168Z" fill="#59209F"/>
<path d="M65.469 96.104C65.469 96.104 65.3683 96.1544 65.1943 96.2461C65.0202 96.1544 64.9195 96.104 64.9195 96.104C64.9195 96.104 50.8521 96.104 51.4107 102.587C51.9694 109.071 56.9928 115.439 64.805 115.889C64.8142 115.889 64.8279 115.889 64.8371 115.889C64.9516 115.893 65.0706 115.889 65.1897 115.889C65.3087 115.889 65.4278 115.893 65.5423 115.889C65.5514 115.889 65.5652 115.889 65.5743 115.889C73.3865 115.439 78.4099 109.071 78.9686 102.587C79.5273 96.104 65.4598 96.104 65.4598 96.104H65.469Z" fill="#59209F"/>
<path opacity="0.3" d="M124.159 92.6655C123.807 88.195 123.317 74.5178 115.866 69.7998C108.416 65.0818 96.8899 53.532 83.7016 54.6141C75.2484 55.3064 65.9663 55.3294 56.2125 56.7186C56.2125 56.7186 37.9413 65.5953 40.7118 68.5756C44.1599 72.2803 64.304 70.8268 72.2627 74.7425C77.2083 77.1771 80.0749 82.2436 80.9266 83.0644C85.9958 87.9383 86.8201 89.3321 90.8224 92.3949C101.062 105.765 81.5677 118.635 71.1912 124.481C70.9027 124.665 70.5043 124.82 70.0097 124.958L74.012 125.183L120.716 102.459C122.689 98.6214 124.319 94.7287 124.159 92.6655Z" fill="#59209F"/>
<path opacity="0.3" d="M24.6084 92.6011C21.5632 83.0825 35.2139 72.381 35.2139 72.381C35.2139 72.381 23.427 68.5387 16.5856 72.4543C15.9949 72.7936 15.4408 73.1283 14.9233 73.4585L11.0859 104.055C14.6577 107.163 19.4064 110.455 22.9507 111.459C26.953 112.592 39.0376 119.341 43.136 118.933C45.0227 118.745 29.3388 107.379 24.6084 92.5965V92.6011Z" fill="#59209F"/>
</svg>
