<svg width="211" height="36" viewBox="0 0 211 36" fill="none" xmlns="http://www.w3.org/2000/svg">
<path d="M26.5443 19.6315C26.2013 17.9559 25.2118 13.8925 23.1207 10.2809C23.1306 10.2446 23.1438 10.2117 23.1537 10.1787C23.3087 9.60807 23.3747 9.03088 23.3483 8.47347C23.3252 7.97214 23.2263 7.52687 23.0812 7.14428C22.9459 6.79466 22.7645 6.49122 22.5534 6.24386C22.3555 6.00968 22.1247 5.81838 21.8707 5.67985C21.6266 5.54463 21.3529 5.45228 21.056 5.41599C20.7625 5.37971 20.4656 5.3962 20.1721 5.46217C19.9016 5.52154 19.6279 5.62708 19.3607 5.77221C19.2849 5.71284 19.2123 5.65017 19.1365 5.5908C17.0553 3.86582 14.8157 2.36511 13.3183 2.36511C11.7352 2.36511 9.4264 3.97466 7.3617 5.74582C7.11103 5.61719 6.85377 5.51824 6.5998 5.46217C6.30626 5.3962 6.00941 5.37971 5.71587 5.41599C5.42232 5.45228 5.14857 5.54463 4.9012 5.67985C4.64724 5.81838 4.41636 6.00968 4.21846 6.24386C4.00737 6.49122 3.82597 6.79466 3.69074 7.14428C3.54232 7.52358 3.44667 7.96884 3.42358 8.47347C3.3972 9.03088 3.46316 9.60807 3.61818 10.1787C3.62808 10.2149 3.64127 10.2479 3.65116 10.2809C1.55677 13.8925 0.567299 17.9592 0.224281 19.6315C0.0758598 20.0899 0 20.5649 0 21.0497C0 24.4766 3.85895 27.3856 9.20212 28.3982C10.6171 28.7412 12.352 29.1007 13.4305 29.1007C14.5882 29.1007 16.4055 28.7049 17.7875 28.3553C23.0185 27.3032 26.7719 24.4304 26.7719 21.0497C26.7719 20.5649 26.6927 20.0899 26.5476 19.6315H26.5443Z" fill="white"/>
<path d="M45.3312 27.5475C43.7613 27.5475 42.3496 27.1254 41.0996 26.281C39.8495 25.4366 38.8634 24.2691 38.1377 22.7816C37.4121 21.294 37.0493 19.5987 37.0493 17.6957C37.0493 15.7926 37.4055 14.0313 38.1212 12.5537C38.8337 11.0794 39.8231 9.91838 41.0831 9.07402C42.343 8.22967 43.7975 7.8075 45.4368 7.8075C46.3174 7.8075 47.1255 7.92623 47.8643 8.16371C48.6031 8.40118 49.243 8.7475 49.7905 9.19936C50.338 9.65122 50.8129 10.1624 51.2186 10.733C51.6243 11.3036 51.9574 11.9237 52.218 12.59L50.8624 12.5174V8.19669H57.3962V27.2243H50.7206V22.5837L52.185 22.6562C51.9706 23.3456 51.654 23.9887 51.2384 24.5824C50.8228 25.1761 50.3149 25.6939 49.7212 26.1359C49.1275 26.5778 48.4646 26.9209 47.7389 27.1715C47.0133 27.4222 46.2086 27.5475 45.3279 27.5475H45.3312ZM47.2244 22.0856C47.9863 22.0856 48.6394 21.9141 49.1869 21.5678C49.7344 21.2215 50.1566 20.7168 50.4534 20.0506C50.7502 19.3844 50.8987 18.5994 50.8987 17.6957C50.8987 16.7919 50.7502 15.9707 50.4534 15.3044C50.1566 14.6382 49.7344 14.1335 49.1869 13.7872C48.6394 13.4409 47.9863 13.2694 47.2244 13.2694C46.4625 13.2694 45.8128 13.4409 45.2785 13.7872C44.7441 14.1335 44.3319 14.6382 44.0482 15.3044C43.7613 15.9707 43.6194 16.7688 43.6194 17.6957C43.6194 18.6225 43.7613 19.3844 44.0482 20.0506C44.3352 20.7168 44.7441 21.2215 45.2785 21.5678C45.8128 21.9141 46.4625 22.0856 47.2244 22.0856Z" fill="#59209F"/>
<path d="M69.9988 27.5804C68.1188 27.5804 66.4333 27.1516 64.9491 26.2941C63.4616 25.4365 62.2907 24.2656 61.4332 22.7781C60.5757 21.2906 60.1469 19.5953 60.1469 17.6922C60.1469 15.7891 60.5757 14.0938 61.4332 12.6063C62.2907 11.1188 63.4616 9.94794 64.9491 9.0904C66.4366 8.23285 68.1188 7.80408 69.9988 7.80408C71.7138 7.80408 73.2871 8.07783 74.7284 8.62534C76.1665 9.17285 77.3176 9.95784 78.1718 10.9803L74.5668 15.2647C74.3063 14.9316 73.9731 14.6282 73.5675 14.3544C73.1618 14.0806 72.7165 13.8663 72.2284 13.7112C71.7402 13.5562 71.1993 13.4804 70.6056 13.4804C69.8207 13.4804 69.1313 13.6585 68.5343 14.0147C67.9406 14.3709 67.4822 14.8656 67.159 15.4956C66.839 16.1256 66.6774 16.8479 66.6774 17.656C66.6774 18.464 66.8324 19.1797 67.1425 19.7965C67.4525 20.4166 67.911 20.9146 68.5178 21.2972C69.1247 21.6798 69.8207 21.8678 70.6056 21.8678C71.1993 21.8678 71.7402 21.7953 72.2284 21.6534C72.7165 21.5116 73.1552 21.3071 73.5477 21.0466C73.9402 20.786 74.2799 20.476 74.5635 20.1197L78.1685 24.4405C77.2879 25.4398 76.1269 26.2149 74.6889 26.7624C73.2475 27.3099 71.6842 27.5837 69.9955 27.5837L69.9988 27.5804Z" fill="#59209F"/>
<path d="M88.7361 27.5804C86.8561 27.5804 85.1707 27.1516 83.6865 26.2941C82.199 25.4365 81.0281 24.2656 80.1706 22.7781C79.313 21.2906 78.8842 19.5953 78.8842 17.6922C78.8842 15.7891 79.313 14.0938 80.1706 12.6063C81.0281 11.1188 82.199 9.94794 83.6865 9.0904C85.174 8.23285 86.8561 7.80408 88.7361 7.80408C90.4512 7.80408 92.0245 8.07783 93.4658 8.62534C94.9039 9.17285 96.0549 9.95784 96.9092 10.9803L93.3042 15.2647C93.0436 14.9316 92.7105 14.6282 92.3048 14.3544C91.8991 14.0806 91.4539 13.8663 90.9657 13.7112C90.4776 13.5562 89.9367 13.4804 89.343 13.4804C88.558 13.4804 87.8687 13.6585 87.2717 14.0147C86.678 14.3709 86.2196 14.8656 85.8963 15.4956C85.5764 16.1256 85.4148 16.8479 85.4148 17.656C85.4148 18.464 85.5698 19.1797 85.8798 19.7965C86.1899 20.4166 86.6483 20.9146 87.2552 21.2972C87.8621 21.6798 88.558 21.8678 89.343 21.8678C89.9367 21.8678 90.4776 21.7953 90.9657 21.6534C91.4539 21.5116 91.8925 21.3071 92.285 21.0466C92.6775 20.786 93.0173 20.476 93.3009 20.1197L96.9059 24.4405C96.0253 25.4398 94.8643 26.2149 93.4262 26.7624C91.9849 27.3099 90.4215 27.5837 88.7328 27.5837L88.7361 27.5804Z" fill="#59209F"/>
<path d="M111.085 27.6168C110.205 27.6168 109.37 27.5046 108.585 27.2771C107.8 27.0528 107.098 26.7427 106.478 26.3502C105.857 25.9578 105.346 25.4993 104.944 24.9749C104.538 24.4505 104.278 23.8931 104.159 23.2961L105.514 22.9399L105.049 27.188H98.9806V0.808594H105.656V12.8043L104.228 12.3393C104.37 11.6961 104.65 11.1024 105.066 10.5549C105.481 10.0074 105.989 9.52587 106.583 9.11029C107.177 8.69471 107.843 8.37478 108.582 8.1472C109.321 7.92292 110.092 7.80748 110.904 7.80748C112.546 7.80748 113.991 8.22966 115.241 9.07401C116.491 9.91836 117.477 11.0892 118.203 12.5899C118.928 14.0906 119.291 15.8024 119.291 17.7286C119.291 19.6548 118.935 21.3633 118.219 22.8508C117.507 24.3383 116.531 25.5059 115.294 26.3502C114.057 27.1946 112.652 27.6168 111.082 27.6168H111.085ZM109.159 22.1549C109.921 22.1549 110.571 21.9702 111.105 21.6008C111.639 21.2314 112.058 20.7201 112.355 20.0671C112.652 19.414 112.8 18.6323 112.8 17.7286C112.8 16.8249 112.658 16.0036 112.371 15.3374C112.085 14.6711 111.669 14.1665 111.121 13.8202C110.574 13.4772 109.921 13.3024 109.159 13.3024C108.397 13.3024 107.744 13.4772 107.197 13.8202C106.649 14.1665 106.227 14.6711 105.93 15.3374C105.633 16.0036 105.485 16.8018 105.485 17.7286C105.485 18.6554 105.633 19.414 105.93 20.0671C106.227 20.7234 106.649 21.2347 107.197 21.6008C107.744 21.9702 108.397 22.1549 109.159 22.1549Z" fill="#F99B28"/>
<path d="M128.467 27.6169C127.039 27.6169 125.825 27.3134 124.826 26.7066C123.826 26.0997 123.064 25.2256 122.54 24.0845C122.015 22.9433 121.755 21.5613 121.755 19.9451V8.19678H128.394V19.2624C128.394 19.8825 128.5 20.4036 128.714 20.8324C128.929 21.2611 129.225 21.5877 129.608 21.8153C129.987 22.0428 130.452 22.155 131 22.155C131.429 22.155 131.815 22.0956 132.161 21.9769C132.504 21.8581 132.797 21.6734 133.035 21.4228C133.272 21.1721 133.464 20.8884 133.605 20.5652C133.747 20.2453 133.82 19.8924 133.82 19.5131V8.19678H140.459V27.2244H134.318L133.962 23.3687L135.212 22.94C134.948 23.8206 134.486 24.6188 133.82 25.3312C133.154 26.0436 132.355 26.6043 131.429 27.01C130.502 27.4157 129.512 27.6169 128.467 27.6169Z" fill="#F99B28"/>
<path d="M151.564 27.6168C149.968 27.6168 148.547 27.1946 147.3 26.3502C146.05 25.5059 145.07 24.3383 144.355 22.8508C143.642 21.3633 143.283 19.6548 143.283 17.7286C143.283 15.8024 143.645 14.0939 144.371 12.6064C145.097 11.1189 146.089 9.94805 147.353 9.0905C148.613 8.23296 150.054 7.80418 151.673 7.80418C152.508 7.80418 153.303 7.92292 154.065 8.1604C154.826 8.39787 155.509 8.73099 156.116 9.15976C156.723 9.58854 157.234 10.0866 157.65 10.6605C158.065 11.2311 158.333 11.8379 158.455 12.4811L156.921 12.9099V0.808594H163.597V27.2243H157.564L157.099 22.9761L158.418 23.2268C158.323 23.8469 158.072 24.4175 157.67 24.9386C157.264 25.463 156.759 25.9281 156.152 26.3305C155.545 26.7361 154.843 27.0495 154.045 27.2771C153.247 27.5046 152.422 27.6168 151.564 27.6168ZM153.458 22.1912C154.22 22.1912 154.873 22.0065 155.42 21.637C155.968 21.2676 156.383 20.7564 156.67 20.1034C156.957 19.4503 157.099 18.6587 157.099 17.7286C157.099 16.7985 156.957 15.997 156.67 15.3176C156.383 14.6382 155.968 14.1269 155.42 13.7839C154.873 13.4376 154.22 13.2661 153.458 13.2661C152.696 13.2661 152.043 13.4376 151.495 13.7839C150.948 14.1302 150.532 14.6415 150.245 15.3176C149.958 15.9937 149.816 16.7985 149.816 17.7286C149.816 18.6587 149.958 19.447 150.245 20.1034C150.532 20.7597 150.948 21.2709 151.495 21.637C152.043 22.0065 152.696 22.1912 153.458 22.1912Z" fill="#F99B28"/>
<path d="M174.339 27.6168C172.743 27.6168 171.321 27.1946 170.074 26.3502C168.824 25.5059 167.845 24.3383 167.129 22.8508C166.416 21.3633 166.057 19.6548 166.057 17.7286C166.057 15.8024 166.42 14.0939 167.145 12.6064C167.871 11.1189 168.864 9.94805 170.127 9.0905C171.387 8.23296 172.828 7.80418 174.448 7.80418C175.282 7.80418 176.077 7.92292 176.839 8.1604C177.601 8.39787 178.284 8.73099 178.89 9.15976C179.497 9.58854 180.009 10.0866 180.424 10.6605C180.84 11.2311 181.107 11.8379 181.229 12.4811L179.695 12.9099V0.808594H186.371V27.2243H180.338L179.873 22.9761L181.193 23.2268C181.097 23.8469 180.846 24.4175 180.444 24.9386C180.038 25.463 179.534 25.9281 178.927 26.3305C178.32 26.7361 177.617 27.0495 176.819 27.2771C176.021 27.5046 175.196 27.6168 174.339 27.6168ZM176.232 22.1912C176.994 22.1912 177.647 22.0065 178.195 21.637C178.742 21.2676 179.158 20.7564 179.445 20.1034C179.732 19.4503 179.873 18.6587 179.873 17.7286C179.873 16.7985 179.732 15.997 179.445 15.3176C179.158 14.6382 178.742 14.1269 178.195 13.7839C177.647 13.4376 176.994 13.2661 176.232 13.2661C175.47 13.2661 174.817 13.4376 174.27 13.7839C173.722 14.1302 173.307 14.6415 173.02 15.3176C172.733 15.9937 172.591 16.7985 172.591 17.7286C172.591 18.6587 172.733 19.447 173.02 20.1034C173.307 20.7597 173.722 21.2709 174.27 21.637C174.817 22.0065 175.47 22.1912 176.232 22.1912Z" fill="#F99B28"/>
<path d="M192.258 35.4336L196.826 24.6516L196.899 27.5772L187.868 8.19336H195.293L198.469 15.7595C198.73 16.3532 198.964 16.9436 199.165 17.5274C199.366 18.1112 199.515 18.6653 199.61 19.1864L198.861 19.757C198.957 19.447 199.099 19.0215 199.29 18.4707C199.482 17.9232 199.696 17.2932 199.933 16.5775L202.826 8.19006H210.287L202.041 27.2177L198.72 35.427H192.258V35.4336Z" fill="#F99B28"/>
<path d="M13.2029 15.875C9.93099 15.875 7.01534 16.7128 5.12874 18.0189C5.05947 18.2267 5.02319 18.3487 5.02319 18.3487C5.02319 18.3487 6.57997 19.7702 7.31548 20.2056C8.05099 20.6377 8.70074 20.9774 9.89141 20.3309C10.7226 19.8758 11.4746 19.2557 12.3618 18.9984C12.6191 18.982 12.8994 18.9523 13.2029 18.9094C13.2688 18.8995 13.3348 18.8929 13.4008 18.8896C13.4667 18.8962 13.5327 18.8995 13.5986 18.9094C13.8988 18.9523 14.1824 18.982 14.4397 18.9984C15.3302 19.2557 16.0789 19.8758 16.9101 20.3309C18.0975 20.9807 18.7505 20.641 19.486 20.2056C20.1655 19.8065 21.5474 18.5598 21.7519 18.3751C19.9016 16.8711 16.765 15.8783 13.2062 15.8783L13.2029 15.875Z" fill="#F99B28"/>
<path d="M26.5443 19.6315C26.2013 17.9559 25.2118 13.8925 23.1207 10.2809C23.1306 10.2446 23.1438 10.2117 23.1537 10.1787C23.3087 9.60807 23.3747 9.03088 23.3483 8.47347C23.3252 7.97214 23.2263 7.52687 23.0812 7.14428C22.9459 6.79466 22.7645 6.49122 22.5534 6.24386C22.3555 6.00968 22.1247 5.81838 21.8707 5.67985C21.6266 5.54463 21.3529 5.45228 21.056 5.41599C20.7625 5.37971 20.4656 5.3962 20.1721 5.46217C19.9016 5.52154 19.6279 5.62708 19.3607 5.77221C19.2849 5.71284 19.2123 5.65017 19.1365 5.5908C17.0553 3.86582 14.8157 2.36511 13.3183 2.36511C11.7352 2.36511 9.4264 3.97466 7.3617 5.74582C7.11103 5.61719 6.85377 5.51824 6.5998 5.46217C6.30626 5.3962 6.00941 5.37971 5.71587 5.41599C5.42232 5.45228 5.14857 5.54463 4.9012 5.67985C4.64724 5.81838 4.41636 6.00968 4.21846 6.24386C4.00737 6.49122 3.82597 6.79466 3.69074 7.14428C3.54232 7.52358 3.44667 7.96884 3.42358 8.47347C3.3972 9.03088 3.46316 9.60807 3.61818 10.1787C3.62808 10.2149 3.64127 10.2479 3.65116 10.2809C1.55677 13.8925 0.567299 17.9592 0.224281 19.6315C0.0758598 20.0899 0 20.5649 0 21.0497C0 24.4766 3.85895 27.3856 9.20212 28.3982C10.6171 28.7412 12.352 29.1007 13.4305 29.1007C14.5882 29.1007 16.4055 28.7049 17.7875 28.3553C23.0185 27.3032 26.7719 24.4304 26.7719 21.0497C26.7719 20.5649 26.6927 20.0899 26.5476 19.6315H26.5443ZM23.7177 20.5022C23.6781 22.9693 18.1008 26.3104 18.1008 26.3104C18.1008 26.3104 15.5051 27.943 13.4041 27.943C11.3031 27.943 8.70738 26.3104 8.70738 26.3104C8.70738 26.3104 3.13004 22.9693 3.09046 20.5022C3.09046 20.4956 3.09046 20.489 3.09046 20.4824C3.09046 18.5958 7.70142 16.6037 13.3909 16.6037C13.3975 16.6037 13.4008 16.6037 13.4074 16.6037C13.414 16.6037 13.4173 16.6037 13.4239 16.6037C19.1134 16.6037 23.7243 18.5958 23.7243 20.4824C23.7243 20.489 23.7243 20.4956 23.7243 20.5022H23.7177Z" fill="#59209F"/>
<path d="M8.94478 18.8468C9.57322 18.8468 10.0827 18.3374 10.0827 17.7089C10.0827 17.0805 9.57322 16.571 8.94478 16.571C8.31634 16.571 7.80688 17.0805 7.80688 17.7089C7.80688 18.3374 8.31634 18.8468 8.94478 18.8468Z" fill="#59209F"/>
<path d="M17.8237 18.8863C18.4522 18.8863 18.9616 18.3768 18.9616 17.7484C18.9616 17.1199 18.4522 16.6105 17.8237 16.6105C17.1953 16.6105 16.6858 17.1199 16.6858 17.7484C16.6858 18.3768 17.1953 18.8863 17.8237 18.8863Z" fill="#59209F"/>
<path d="M13.4403 22.0493C13.4403 22.0493 13.4205 22.0592 13.3843 22.079C13.348 22.0592 13.3282 22.0493 13.3282 22.0493C13.3282 22.0493 10.4323 22.0493 10.5478 23.3818C10.6632 24.7143 11.6956 26.0237 13.3051 26.1161C13.3051 26.1161 13.3084 26.1161 13.3117 26.1161C13.3348 26.1161 13.3612 26.1161 13.3843 26.1161C13.4073 26.1161 13.4337 26.1161 13.4568 26.1161C13.4568 26.1161 13.4601 26.1161 13.4634 26.1161C15.073 26.0237 16.1053 24.7143 16.2208 23.3818C16.3362 22.0493 13.4403 22.0493 13.4403 22.0493Z" fill="#59209F"/>
</svg>
