<svg width="18" height="14" viewBox="0 0 18 14" fill="none" xmlns="http://www.w3.org/2000/svg">
<path d="M8.70886 5.93466L1.35296 0.723916C1.56874 0.628898 1.81608 0.578125 2.06378 0.578125H16.0263C16.2737 0.578125 16.5214 0.628898 16.7371 0.723916L9.39393 5.92814C9.18467 6.06776 8.90506 6.06776 8.7085 5.93466H8.70886ZM17.7084 1.59358L10.1178 6.97551C9.78778 7.19129 9.41315 7.30553 9.03888 7.30553C8.66461 7.30553 8.3092 7.19746 7.99151 6.98167L0.382106 1.59395C0.242481 1.8605 0.160156 2.16514 0.160156 2.48247V11.3677C0.160156 12.4151 1.01677 13.2717 2.06414 13.2717H16.0267C17.0741 13.2717 17.9307 12.4151 17.9307 11.3677V2.48247C17.9307 2.16514 17.8483 1.8605 17.7087 1.59395L17.7084 1.59358Z" fill="#59219E"/>
</svg>
