<svg width="30" height="30" viewBox="0 0 30 30" fill="none" xmlns="http://www.w3.org/2000/svg">
<path d="M5.87065 26.1411C8.4294 28.1964 11.614 29.3145 14.8962 29.3117C15.4369 29.3139 15.9777 29.2829 16.5144 29.2198C19.0811 28.9914 21.5395 28.0825 23.6376 26.586C25.7351 25.0896 27.3951 23.0608 28.4461 20.7084C29.4971 18.3561 29.9014 15.7657 29.6166 13.2053C29.3319 10.6443 28.3688 8.20619 26.8267 6.14193C25.2846 4.07768 23.2192 2.46281 20.8448 1.46423C18.4699 0.465092 15.8717 0.118324 13.3174 0.459453C9.56838 0.854712 6.12664 2.7126 3.7393 5.62996L3.52898 4.16959C3.46076 3.69934 3.14726 3.30182 2.70632 3.12534C2.26539 2.94941 1.76357 3.02215 1.3903 3.31592C1.01759 3.60968 0.829268 4.0805 0.898057 4.55075L1.64798 9.57634C1.67504 9.61412 1.70605 9.64965 1.73989 9.68178C1.73256 9.7517 1.73256 9.82218 1.73989 9.8921C1.77992 9.98288 1.83292 10.0669 1.89776 10.1419L2.05564 10.2998C2.05564 10.2998 2.13458 10.4052 2.18702 10.4311C2.23044 10.465 2.27949 10.4915 2.33193 10.5101C2.47007 10.5653 2.61724 10.5963 2.76609 10.602C2.87548 10.615 2.98543 10.615 3.09482 10.602L7.85766 9.44384C8.19653 9.35701 8.48692 9.13936 8.66453 8.8377C8.84214 8.5366 8.89289 8.17743 8.80493 7.83856C8.70738 7.51209 8.48635 7.23693 8.18977 7.07003C7.89262 6.90313 7.54303 6.85802 7.21318 6.94373L5.81878 7.24652C7.76519 4.89977 10.55 3.40388 13.5813 3.07572C15.6794 2.77575 17.8198 3.04414 19.7791 3.85327C21.738 4.66239 23.4442 5.98293 24.7185 7.67617C25.9928 9.36998 26.7901 11.3745 27.0257 13.481C27.2614 15.5876 26.9271 17.7189 26.0582 19.6523C25.1893 21.5858 23.8169 23.2503 22.0853 24.4721C20.3537 25.6946 18.3255 26.4293 16.2122 26.6001C14.1412 26.8268 12.0465 26.5031 10.1407 25.6619C8.23487 24.82 6.58449 23.491 5.35642 21.8074C4.12835 20.1237 3.36659 18.1463 3.14726 16.0747C3.09538 15.7471 2.92115 15.4505 2.66009 15.2459C2.39903 15.0406 2.0703 14.9419 1.73932 14.9696C1.39199 15.009 1.07454 15.1855 0.856896 15.4596C0.639814 15.7336 0.540577 16.0826 0.581174 16.4299C0.777394 18.3177 1.34575 20.1474 2.25355 21.8141C3.16135 23.4809 4.39054 24.9508 5.87065 26.1394V26.1411Z" fill="#59219E"/>
<path d="M14.896 6.01172C14.547 6.01172 14.2126 6.15043 13.9657 6.39683C13.7187 6.64379 13.5806 6.97816 13.5806 7.32718V14.8394C13.5823 15.2397 13.7661 15.6175 14.0807 15.8656L18.843 19.6281C19.1159 19.8435 19.4621 19.9416 19.8072 19.9022C20.1522 19.8627 20.4674 19.6885 20.6851 19.4173C20.9016 19.1466 21.0025 18.801 20.9653 18.4559C20.9281 18.1108 20.7567 17.7945 20.4877 17.5757L16.2115 14.2078V7.32718C16.2115 6.97816 16.0728 6.64379 15.8264 6.39683C15.5794 6.14986 15.2451 6.01172 14.896 6.01172Z" fill="#59219E"/>
</svg>
