<svg width="13" height="16" viewBox="0 0 13 16" fill="none" xmlns="http://www.w3.org/2000/svg">
<path fill-rule="evenodd" clip-rule="evenodd" d="M10.8361 5.13388C10.8361 2.70994 8.87131 0.745117 6.44736 0.745117C4.02341 0.745117 2.05859 2.70994 2.05859 5.13388V8.89559H3.31272V5.13388C3.31272 3.40249 4.71631 1.99891 6.44736 1.99891C8.17842 1.99891 9.582 3.40249 9.582 5.13388V8.89559H10.8361V5.13388Z" fill="#59219E"/>
<path fill-rule="evenodd" clip-rule="evenodd" d="M0.179688 8.27213V14.5344C0.179688 15.2289 0.742936 15.7918 1.42777 15.7918H11.4705C12.1597 15.7918 12.7186 15.2293 12.7186 14.5344V8.27213C12.7186 7.57756 12.1553 7.01465 11.4705 7.01465H1.42777C0.738569 7.01465 0.179688 7.57689 0.179688 8.27213Z" fill="#59219E"/>
</svg>
