<svg width="308" height="53" viewBox="0 0 308 53" fill="none" xmlns="http://www.w3.org/2000/svg">
<path d="M37.9934 31.6521C37.51 29.3004 36.125 23.6016 33.1963 18.5376C33.2107 18.4871 33.2251 18.4366 33.2395 18.3861C33.4559 17.5854 33.5497 16.7774 33.5137 15.9911C33.4776 15.2842 33.3405 14.6638 33.1385 14.13C32.951 13.6395 32.6913 13.2139 32.3955 12.8676C32.1142 12.5358 31.7896 12.2689 31.4361 12.0741C31.0899 11.8865 30.7075 11.7567 30.2963 11.7062C29.8852 11.6557 29.4668 11.6773 29.0556 11.7711C28.6805 11.8577 28.2981 12.002 27.923 12.2039C27.8148 12.1174 27.7066 12.038 27.5984 11.9515C24.6769 9.53488 21.5389 7.42126 19.4397 7.42126C17.2179 7.42126 13.979 9.67915 11.079 12.1679C10.7256 11.9875 10.3649 11.8505 10.0114 11.7711C9.60023 11.6773 9.18184 11.6557 8.77066 11.7062C8.35948 11.7567 7.97715 11.8865 7.63089 12.0741C7.27742 12.2689 6.95281 12.5358 6.67147 12.8676C6.37571 13.2139 6.12323 13.6395 5.92846 14.13C5.71926 14.6638 5.5822 15.2914 5.55335 15.9911C5.51728 16.7702 5.61106 17.5854 5.82747 18.3861C5.8419 18.4366 5.85632 18.4871 5.87075 18.5376C2.93477 23.6016 1.54974 29.3076 1.06643 31.6521C0.857229 32.3013 0.749023 32.965 0.749023 33.6431C0.749023 38.4546 6.16651 42.5304 13.6615 43.9587C15.6453 44.442 18.0835 44.9397 19.5912 44.9397C21.2143 44.9397 23.7679 44.3843 25.7012 43.8937C33.0376 42.4149 38.3036 38.3825 38.3036 33.6431C38.3036 32.965 38.1953 32.3013 37.9861 31.6521H37.9934Z" fill="white"/>
<path d="M30.953 29.6397C28.3055 28.3412 24.1937 27.4034 19.577 27.4034C19.5697 27.4034 19.5625 27.4034 19.5553 27.4034C19.5481 27.4034 19.5409 27.4034 19.5337 27.4034C14.7077 27.4034 10.4372 28.4278 7.81141 29.82C7.81141 29.8417 7.8042 29.8489 7.8042 29.8489C7.8042 29.8489 9.98995 31.8471 11.0215 32.453C12.0531 33.059 12.9692 33.5351 14.6356 32.6262C15.8042 31.9914 16.8574 31.1185 18.1054 30.7578C18.4661 30.7362 18.8628 30.6929 19.2812 30.6352C19.375 30.6208 19.4688 30.6135 19.5625 30.6063C19.6563 30.6063 19.7429 30.6208 19.8439 30.6352C20.2695 30.6929 20.659 30.7362 21.0197 30.7578C22.2677 31.1185 23.3209 31.9914 24.4895 32.6262C26.1559 33.5351 27.072 33.059 28.1036 32.453C29.0558 31.8904 30.9963 30.1447 31.2848 29.885C31.1838 29.8056 31.0828 29.7263 30.9746 29.6469L30.953 29.6397Z" fill="#F99B28"/>
<path d="M19.6054 35.0427C19.6054 35.0427 19.5765 35.0572 19.526 35.086C19.4756 35.0572 19.4467 35.0427 19.4467 35.0427C19.4467 35.0427 15.3854 35.0427 15.5441 36.9111C15.7028 38.7794 17.16 40.6189 19.4178 40.7488C19.4178 40.7488 19.4178 40.7488 19.4251 40.7488C19.4611 40.7488 19.49 40.7488 19.526 40.7488C19.5621 40.7488 19.591 40.7488 19.627 40.7488C19.627 40.7488 19.627 40.7488 19.6343 40.7488C21.8921 40.6189 23.3421 38.7794 23.508 36.9111C23.6667 35.0427 19.6054 35.0427 19.6054 35.0427Z" fill="#59209F"/>
<path d="M37.9934 31.6521C37.51 29.3004 36.125 23.6016 33.1963 18.5376C33.2107 18.4871 33.2251 18.4366 33.2395 18.3861C33.4559 17.5854 33.5497 16.7774 33.5137 15.9911C33.4776 15.2842 33.3405 14.6638 33.1385 14.13C32.951 13.6395 32.6913 13.2139 32.3955 12.8676C32.1142 12.5358 31.7896 12.2689 31.4361 12.0741C31.0899 11.8865 30.7075 11.7567 30.2963 11.7062C29.8852 11.6557 29.4668 11.6773 29.0556 11.7711C28.6805 11.8577 28.2981 12.002 27.923 12.2039C27.8148 12.1174 27.7066 12.038 27.5984 11.9515C24.6769 9.53488 21.5389 7.42126 19.4397 7.42126C17.2179 7.42126 13.979 9.67915 11.079 12.1679C10.7256 11.9875 10.3649 11.8505 10.0114 11.7711C9.60023 11.6773 9.18184 11.6557 8.77066 11.7062C8.35948 11.7567 7.97715 11.8865 7.63089 12.0741C7.27742 12.2689 6.95281 12.5358 6.67147 12.8676C6.37571 13.2139 6.12323 13.6395 5.92846 14.13C5.71926 14.6638 5.5822 15.2914 5.55335 15.9911C5.51728 16.7702 5.61106 17.5854 5.82747 18.3861C5.8419 18.4366 5.85632 18.4871 5.87075 18.5376C2.93477 23.6016 1.54974 29.3076 1.06643 31.6521C0.857229 32.2941 0.749023 32.965 0.749023 33.6431C0.749023 38.4546 6.16651 42.5303 13.6615 43.9515C15.6453 44.4348 18.0835 44.9325 19.5912 44.9325C21.2143 44.9325 23.7679 44.3771 25.7012 43.8865C33.0376 42.4077 38.3036 38.3753 38.3036 33.6359C38.3036 32.9578 38.1953 32.2941 37.9861 31.6449L37.9934 31.6521ZM34.0258 32.8712C33.9681 36.3338 26.1413 41.0227 26.1413 41.0227C26.1413 41.0227 22.4983 43.3094 19.5479 43.3094C16.5975 43.3094 12.9546 41.0227 12.9546 41.0227C12.9546 41.0227 5.12774 36.3338 5.07003 32.8712C5.07003 32.864 5.07003 32.8496 5.07003 32.8423C5.07003 31.1327 7.76795 29.3653 11.8293 28.3266C11.7499 28.5213 11.6994 28.7305 11.6994 28.9542C11.6994 29.8342 12.4136 30.5484 13.2936 30.5484C14.1737 30.5484 14.8879 29.8342 14.8879 28.9542C14.8879 28.4997 14.6931 28.0885 14.3901 27.8C15.9844 27.5475 17.7157 27.4032 19.5191 27.4032C19.5263 27.4032 19.5335 27.4032 19.5407 27.4032C19.5479 27.4032 19.5551 27.4032 19.5624 27.4032C21.373 27.4032 23.1043 27.5475 24.7057 27.8C24.3667 28.0957 24.1575 28.5213 24.1575 29.0047C24.1575 29.8847 24.8716 30.5989 25.7517 30.5989C26.6318 30.5989 27.3459 29.8847 27.3459 29.0047C27.3459 28.7522 27.2882 28.5141 27.18 28.3049C31.2846 29.3437 34.0114 31.1255 34.0114 32.8423C34.0114 32.8496 34.0114 32.864 34.0114 32.8712H34.0258Z" fill="#59209F"/>
<path opacity="0.3" d="M34.011 32.6551C34.011 32.6551 34.011 32.6335 34.011 32.619C34.0038 32.5613 33.9894 32.4964 33.9749 32.4387C33.9749 32.4243 33.9749 32.417 33.9677 32.4026C33.9533 32.3377 33.9316 32.28 33.91 32.2151C33.91 32.2151 33.91 32.2078 33.91 32.2006C33.8884 32.1429 33.8595 32.078 33.8306 32.0203C33.8306 32.0131 33.8234 32.0059 33.8162 31.9914C33.7874 31.9265 33.7513 31.8688 33.7152 31.8111C33.7152 31.7967 33.7008 31.7894 33.6936 31.775C33.6575 31.7101 33.6142 31.6524 33.571 31.5947C33.571 31.5875 33.5565 31.5803 33.5565 31.573C33.5132 31.5153 33.4627 31.4504 33.4123 31.3927C33.4123 31.3927 33.405 31.3783 33.3978 31.3783C33.3473 31.3133 33.2896 31.2556 33.2319 31.1907C33.2247 31.1835 33.2103 31.1691 33.2031 31.1619C33.1453 31.1041 33.0804 31.0392 33.0155 30.9815C33.0083 30.9743 32.9939 30.9671 32.9866 30.9599C32.8496 30.8372 32.6981 30.7146 32.5322 30.592C32.5178 30.5848 32.5105 30.5775 32.4961 30.5703C32.4168 30.5126 32.3302 30.4549 32.2436 30.3972C32.2292 30.39 32.222 30.3828 32.2076 30.3756C32.0272 30.2529 31.8325 30.1375 31.6305 30.0149C31.6233 30.0149 31.616 30.0077 31.6016 30.0005C31.5006 29.9427 31.3996 29.885 31.2914 29.8273C31.277 29.8273 31.2698 29.8129 31.2554 29.8057C31.1472 29.748 31.0317 29.6903 30.9235 29.6326C30.8009 29.5748 30.6783 29.5171 30.5556 29.4594C30.433 29.4017 30.3104 29.3512 30.1805 29.2935C30.1661 29.2935 30.1589 29.2863 30.1444 29.2791C30.0146 29.2286 29.8848 29.1709 29.7549 29.1204C29.7549 29.1204 29.7549 29.1204 29.7477 29.1204C29.4736 29.0122 29.1922 28.9112 28.8965 28.8102C28.8893 28.8102 28.882 28.8102 28.8748 28.803C28.7306 28.7525 28.5791 28.7092 28.4348 28.6587C28.4348 28.6587 28.4276 28.6587 28.4204 28.6587C28.1102 28.5649 27.8 28.4711 27.4682 28.3846C27.3095 28.3413 27.1435 28.298 26.9776 28.2619H26.9632C26.4582 28.1393 25.9389 28.0311 25.3978 27.9301H25.3834C24.8424 27.8291 24.2869 27.7498 23.7098 27.6776C23.7098 27.6776 23.7026 27.6776 23.6954 27.6776C23.5078 27.656 23.3131 27.6344 23.1183 27.6127C21.993 27.4973 20.8171 27.4324 19.6052 27.4324C19.598 27.4324 19.5908 27.4324 19.5836 27.4324C19.5764 27.4324 19.5692 27.4324 19.5619 27.4324C13.3437 27.4324 8.04167 29.1276 6.0074 31.1258C5.93527 31.1979 5.87034 31.2701 5.80542 31.3422C5.7405 31.4143 5.68279 31.4865 5.62508 31.5586C5.46638 31.7678 5.33653 31.9842 5.24996 32.2006C5.24996 32.2006 5.24996 32.2151 5.24275 32.2223C5.2139 32.2872 5.19947 32.3521 5.17783 32.417C5.17783 32.4243 5.17783 32.4387 5.17061 32.4459C5.15619 32.5108 5.14176 32.5757 5.13454 32.6407C5.13454 32.6479 5.13454 32.6551 5.13454 32.6695C5.12733 32.7344 5.12012 32.8066 5.12012 32.8715C5.12012 32.8787 5.12012 32.8931 5.12012 32.9004C5.12012 32.9509 5.12012 33.0014 5.12733 33.0518C5.12733 33.0663 5.12733 33.0879 5.12733 33.1023C5.12733 33.1384 5.13454 33.1745 5.14176 33.2105C5.14176 33.2322 5.14176 33.2466 5.14897 33.2683C5.14897 33.3043 5.1634 33.3332 5.1634 33.3692C5.1634 33.3909 5.17061 33.4053 5.17783 33.427C5.18504 33.463 5.19225 33.4991 5.20668 33.5352C5.20668 33.5496 5.2139 33.5712 5.22111 33.5857C5.23554 33.6362 5.24996 33.6867 5.26439 33.7299C5.26439 33.7299 5.26439 33.7299 5.26439 33.7372C5.27882 33.7876 5.30046 33.8454 5.3221 33.8958C5.3221 33.9103 5.33653 33.9247 5.33653 33.9391C5.35096 33.9752 5.36538 34.0113 5.37981 34.0546C5.38702 34.0762 5.39424 34.0906 5.40145 34.1123C5.41588 34.1483 5.43031 34.1844 5.45195 34.2205C5.45916 34.2421 5.46637 34.2565 5.4808 34.2782C5.49523 34.3142 5.51687 34.3503 5.53851 34.3864C5.54573 34.4008 5.55294 34.4224 5.56737 34.4369C5.59622 34.4874 5.61786 34.5379 5.64672 34.5884C5.64672 34.5884 5.64672 34.5956 5.64672 34.6028C5.67557 34.6605 5.71164 34.711 5.7405 34.7687C5.74771 34.7831 5.75492 34.7976 5.76214 34.812C5.78378 34.8553 5.81263 34.8913 5.84149 34.9346C5.85591 34.9491 5.86313 34.9707 5.87756 34.9851C5.8992 35.0212 5.92805 35.0573 5.94969 35.1005C5.96412 35.115 5.97133 35.1366 5.98576 35.151C6.01462 35.1871 6.04347 35.2304 6.06511 35.2665C6.07954 35.2809 6.08675 35.2953 6.10118 35.3097C6.13725 35.3602 6.17332 35.4107 6.2166 35.4612C6.2166 35.4612 6.2166 35.4612 6.2166 35.4684C6.25988 35.5261 6.30316 35.5766 6.34645 35.6344C6.35366 35.6416 6.36087 35.656 6.36809 35.6632C6.40416 35.7065 6.44022 35.7498 6.47629 35.8003C6.49072 35.8147 6.50515 35.8291 6.51236 35.8435C6.54843 35.8796 6.57729 35.9229 6.61335 35.959C6.62778 35.9734 6.64221 35.995 6.65664 36.0095C6.6927 36.0527 6.72877 36.0888 6.76484 36.1321C6.77927 36.1465 6.78648 36.161 6.80091 36.1754C6.84419 36.2259 6.89469 36.2764 6.93797 36.3269C6.98847 36.3846 7.03896 36.4351 7.09667 36.4928C7.09667 36.4928 7.10388 36.5072 7.1111 36.5072C7.15438 36.5577 7.20488 36.601 7.24816 36.6515C7.26259 36.6659 7.27701 36.6803 7.28423 36.6876C7.32751 36.7308 7.36358 36.7669 7.40686 36.8102C7.42129 36.8246 7.43572 36.839 7.45014 36.8535C7.49343 36.8968 7.53671 36.9328 7.57278 36.9761C7.5872 36.9905 7.59442 36.9977 7.60884 37.0122C7.65934 37.0627 7.71705 37.1132 7.76755 37.1637C7.82525 37.2214 7.88297 37.2719 7.94067 37.3296C7.99117 37.3801 8.04888 37.4306 8.09938 37.4738C8.1138 37.4883 8.12102 37.4955 8.13544 37.5099C8.17873 37.5532 8.22201 37.5893 8.27251 37.6253C8.28693 37.6398 8.30136 37.6542 8.31579 37.6614C8.35907 37.6975 8.40235 37.7408 8.45285 37.7768C8.46727 37.7912 8.47449 37.7985 8.48892 37.8129C8.54663 37.8634 8.59712 37.9067 8.65483 37.95C8.77025 38.0509 8.89288 38.1519 9.0083 38.2457C9.02273 38.2529 9.02994 38.2674 9.04437 38.2746C9.08765 38.3106 9.13815 38.3467 9.18143 38.3828C9.19586 38.3972 9.21029 38.4044 9.22471 38.4188C9.268 38.4549 9.31128 38.491 9.35456 38.527C9.36899 38.5415 9.38341 38.5487 9.39784 38.5631C9.44834 38.6064 9.49883 38.6425 9.54933 38.6858C9.54933 38.6858 9.56376 38.693 9.56376 38.7002C9.62147 38.7435 9.67918 38.794 9.7441 38.8372C9.80181 38.8805 9.85952 38.9238 9.91002 38.9671C9.92444 38.9743 9.93887 38.9887 9.94608 38.9959C9.98937 39.0248 10.0326 39.0609 10.0759 39.0897C10.0904 39.1041 10.112 39.1186 10.1264 39.1258C10.1625 39.1546 10.2058 39.1835 10.2418 39.2123C10.2563 39.2268 10.2707 39.234 10.2923 39.2484C10.3356 39.2773 10.3789 39.3133 10.4222 39.3422C10.4294 39.3494 10.4438 39.3566 10.451 39.3638C10.5088 39.4071 10.5592 39.4432 10.617 39.4793C10.617 39.4793 10.617 39.4793 10.6242 39.4793C10.6747 39.5153 10.7252 39.5514 10.7684 39.5875C10.7829 39.6019 10.8045 39.6091 10.8189 39.6235C10.855 39.6452 10.8911 39.674 10.9199 39.6957C10.9416 39.7101 10.956 39.7245 10.9776 39.7317C11.0065 39.7534 11.0426 39.775 11.0714 39.7967C11.0931 39.8111 11.1075 39.8255 11.1291 39.8327C11.158 39.8544 11.1941 39.876 11.2229 39.8976C11.2373 39.9121 11.259 39.9193 11.2734 39.9337C11.3095 39.9626 11.3455 39.9842 11.3816 40.0059C11.4105 40.0275 11.4393 40.0419 11.461 40.0636C11.4898 40.078 11.5115 40.0996 11.5403 40.1141C11.562 40.1285 11.5836 40.1429 11.6124 40.1573C11.6341 40.1718 11.6557 40.1862 11.6702 40.2006C11.6918 40.2151 11.7207 40.2295 11.7423 40.2511C11.7567 40.2655 11.7784 40.2728 11.7928 40.2872C11.8144 40.3016 11.8433 40.3233 11.8649 40.3377C11.8794 40.3449 11.8866 40.3521 11.901 40.3593C12.0308 40.4459 12.1535 40.5252 12.2689 40.5974C12.2977 40.619 12.3266 40.6334 12.3555 40.6551C11.0931 39.3711 8.65483 36.9328 7.76033 34.0185C7.47178 33.0879 7.07503 31.977 8.27972 31.0681C9.30406 30.2962 13.8559 29.0627 15.7387 28.7958C17.3906 28.5577 18.7468 28.6226 20.3338 29.0338C21.8775 29.4306 23.782 31.0248 24.0272 31.2628C25.4916 32.6695 27.4465 33.9536 27.7062 35.9445C28.0885 38.8589 24.1354 41.5207 21.6323 42.9779C23.5223 42.4657 25.2896 41.4847 25.8812 41.1312C25.9461 41.0951 25.9966 41.0663 26.0326 41.0446C26.0326 41.0446 26.0399 41.0446 26.0471 41.0374C26.0543 41.0374 26.0615 41.0302 26.0687 41.023C26.0687 41.023 26.0759 41.023 26.0831 41.0158C26.0831 41.0158 26.0831 41.0158 26.0903 41.0158H26.0976C26.0976 41.0158 33.9244 36.3269 33.9821 32.8643C33.9821 32.8571 33.9821 32.8427 33.9821 32.8354C33.9821 32.7705 33.9821 32.7056 33.9677 32.6479L34.011 32.6551Z" fill="#59209F"/>
<path d="M63.7469 40.3733C61.4313 40.3733 59.3537 39.7529 57.507 38.5049C55.6675 37.257 54.2104 35.5401 53.1355 33.3471C52.0679 31.1542 51.5269 28.651 51.5269 25.8449C51.5269 23.0388 52.0535 20.4418 53.1067 18.2633C54.1599 16.0848 55.617 14.3751 57.4782 13.1271C59.3393 11.8792 61.4818 11.2588 63.8984 11.2588C65.1968 11.2588 66.3871 11.4319 67.4763 11.7854C68.5656 12.1389 69.5106 12.6438 70.3185 13.3147C71.1265 13.9784 71.8262 14.7358 72.4249 15.5798C73.0237 16.4238 73.5142 17.3327 73.8965 18.321L71.8983 18.2128V11.8359H81.5359V39.8972H71.6891V33.0514L73.846 33.1596C73.5286 34.1767 73.067 35.1289 72.4538 36.0018C71.8406 36.8819 71.0904 37.6465 70.2176 38.2885C69.3375 38.9378 68.3636 39.4499 67.296 39.8178C66.2284 40.1857 65.0381 40.3733 63.7397 40.3733H63.7469ZM66.5386 32.3156C67.6639 32.3156 68.6233 32.0631 69.4313 31.5509C70.2392 31.0388 70.8596 30.2957 71.2996 29.3147C71.7396 28.3336 71.9561 27.1722 71.9561 25.8377C71.9561 24.5031 71.7396 23.2912 71.2996 22.3102C70.8596 21.3291 70.2392 20.5789 69.4313 20.0739C68.6233 19.5618 67.6567 19.3093 66.5386 19.3093C65.4204 19.3093 64.461 19.5618 63.6675 20.0739C62.8812 20.5861 62.2753 21.3291 61.8497 22.3102C61.4313 23.2912 61.2149 24.4671 61.2149 25.8377C61.2149 27.2083 61.4241 28.3336 61.8497 29.3147C62.2681 30.2957 62.874 31.046 63.6675 31.5509C64.4538 32.0631 65.4132 32.3156 66.5386 32.3156Z" fill="white"/>
<path d="M100.125 40.4237C97.3554 40.4237 94.8667 39.7889 92.6737 38.5265C90.4807 37.2641 88.7494 35.5328 87.487 33.3398C86.2246 31.1469 85.5898 28.6437 85.5898 25.8376C85.5898 23.0314 86.2246 20.5283 87.487 18.3353C88.7494 16.1424 90.4807 14.4111 92.6737 13.1487C94.8667 11.8863 97.3482 11.2515 100.125 11.2515C102.65 11.2515 104.98 11.6554 107.101 12.4634C109.222 13.2713 110.917 14.4327 112.18 15.9404L106.863 22.2596C106.474 21.769 105.983 21.3218 105.391 20.9178C104.793 20.5139 104.136 20.1965 103.415 19.9728C102.694 19.742 101.893 19.6338 101.02 19.6338C99.8585 19.6338 98.8414 19.8935 97.9686 20.4201C97.0885 20.9467 96.4176 21.6753 95.9415 22.6058C95.4654 23.5364 95.2273 24.5968 95.2273 25.7943C95.2273 26.9918 95.4582 28.0377 95.9126 28.9539C96.3671 29.87 97.0452 30.6058 97.9397 31.1685C98.8342 31.7312 99.8585 32.0125 101.02 32.0125C101.9 32.0125 102.694 31.9043 103.415 31.6951C104.136 31.4859 104.786 31.1829 105.363 30.8006C105.94 30.4183 106.445 29.9566 106.863 29.43L112.18 35.7997C110.881 37.2713 109.171 38.4183 107.043 39.219C104.923 40.0269 102.614 40.4309 100.118 40.4309L100.125 40.4237Z" fill="white"/>
<path d="M127.768 40.4237C124.997 40.4237 122.509 39.7889 120.316 38.5265C118.123 37.2641 116.392 35.5328 115.129 33.3398C113.867 31.1469 113.232 28.6437 113.232 25.8376C113.232 23.0314 113.867 20.5283 115.129 18.3353C116.392 16.1424 118.123 14.4111 120.316 13.1487C122.509 11.8863 124.99 11.2515 127.768 11.2515C130.292 11.2515 132.622 11.6554 134.743 12.4634C136.864 13.2713 138.559 14.4327 139.822 15.9404L134.505 22.2596C134.116 21.769 133.625 21.3218 133.034 20.9178C132.435 20.5139 131.778 20.1965 131.057 19.9728C130.336 19.742 129.535 19.6338 128.662 19.6338C127.501 19.6338 126.484 19.8935 125.611 20.4201C124.731 20.9467 124.06 21.6753 123.584 22.6058C123.107 23.5364 122.869 24.5968 122.869 25.7943C122.869 26.9918 123.1 28.0377 123.555 28.9539C124.009 29.87 124.687 30.6058 125.582 31.1685C126.476 31.7312 127.501 32.0125 128.662 32.0125C129.542 32.0125 130.336 31.9043 131.057 31.6951C131.778 31.4859 132.428 31.1829 133.005 30.8006C133.582 30.4183 134.087 29.9566 134.505 29.43L139.822 35.7997C138.523 37.2713 136.814 38.4183 134.685 39.219C132.565 40.0269 130.256 40.4309 127.76 40.4309L127.768 40.4237Z" fill="white"/>
<path d="M160.727 40.4743C159.429 40.4743 158.203 40.3084 157.041 39.9766C155.88 39.6448 154.848 39.1903 153.932 38.606C153.016 38.0289 152.266 37.3508 151.667 36.5789C151.068 35.8071 150.686 34.9847 150.506 34.1046L152.504 33.578L151.818 39.8467H142.866V0.936035H152.713V18.624L150.607 17.9387C150.816 16.9937 151.227 16.1137 151.847 15.3057C152.46 14.4978 153.211 13.7909 154.084 13.1705C154.964 12.5573 155.945 12.0812 157.034 11.7494C158.123 11.4175 159.263 11.2516 160.453 11.2516C162.877 11.2516 165.005 11.872 166.852 13.12C168.691 14.3679 170.148 16.092 171.223 18.3066C172.291 20.5212 172.832 23.046 172.832 25.8882C172.832 28.7304 172.305 31.248 171.252 33.441C170.199 35.6339 168.756 37.358 166.931 38.5988C165.106 39.8467 163.036 40.4671 160.72 40.4671L160.727 40.4743ZM157.885 32.4166C159.01 32.4166 159.963 32.1425 160.756 31.6015C161.542 31.0605 162.163 30.303 162.596 29.3364C163.036 28.3697 163.252 27.2228 163.252 25.8882C163.252 24.5537 163.043 23.3418 162.617 22.3607C162.199 21.3797 161.579 20.6294 160.778 20.1245C159.97 19.6195 159.003 19.3598 157.885 19.3598C156.767 19.3598 155.793 19.6123 154.992 20.1245C154.185 20.6367 153.564 21.3797 153.124 22.3607C152.684 23.3418 152.468 24.5176 152.468 25.8882C152.468 27.2588 152.684 28.3697 153.124 29.3364C153.564 30.303 154.185 31.0532 154.992 31.6015C155.8 32.1425 156.767 32.4166 157.885 32.4166Z" fill="white"/>
<path d="M186.365 40.4742C184.259 40.4742 182.47 40.027 180.998 39.1325C179.526 38.238 178.401 36.9467 177.629 35.2659C176.857 33.5779 176.468 31.5436 176.468 29.1559V11.8358H186.264V28.1604C186.264 29.0766 186.423 29.8484 186.74 30.476C187.057 31.1108 187.498 31.5941 188.053 31.926C188.616 32.2578 189.301 32.4237 190.109 32.4237C190.744 32.4237 191.314 32.3372 191.819 32.164C192.323 31.9909 192.756 31.7168 193.11 31.3489C193.463 30.981 193.745 30.5626 193.954 30.0865C194.163 29.6104 194.271 29.0982 194.271 28.5355V11.8358H204.067V39.8971H195.014L194.488 34.2127L196.334 33.5779C195.945 34.8764 195.259 36.0522 194.278 37.1054C193.297 38.1586 192.122 38.981 190.751 39.5797C189.38 40.1784 187.923 40.4742 186.379 40.4742H186.365Z" fill="white"/>
<path d="M220.428 40.4743C218.076 40.4743 215.977 39.854 214.137 38.606C212.298 37.358 210.848 35.6412 209.795 33.4482C208.741 31.2552 208.215 28.7376 208.215 25.8954C208.215 23.0532 208.749 20.5357 209.823 18.3427C210.891 16.1497 212.363 14.4184 214.217 13.156C216.078 11.8936 218.199 11.2588 220.586 11.2588C221.813 11.2588 222.989 11.432 224.114 11.7854C225.239 12.1389 226.249 12.6294 227.144 13.257C228.038 13.8918 228.796 14.6276 229.409 15.4716C230.022 16.3156 230.419 17.2101 230.592 18.1551L228.327 18.7899V0.936035H238.173V39.8972H229.279L228.594 33.6285L230.541 33.9964C230.397 34.9126 230.029 35.7494 229.438 36.5212C228.839 37.2931 228.096 37.9784 227.201 38.5771C226.307 39.1759 225.268 39.6375 224.092 39.9694C222.916 40.3012 221.697 40.4671 220.435 40.4671L220.428 40.4743ZM223.219 32.4743C224.345 32.4743 225.304 32.2002 226.112 31.6592C226.92 31.1182 227.533 30.3607 227.952 29.3941C228.37 28.4275 228.586 27.2588 228.586 25.8954C228.586 24.5321 228.377 23.3418 227.952 22.3391C227.533 21.3364 226.913 20.5862 226.112 20.074C225.304 19.5618 224.337 19.3093 223.219 19.3093C222.101 19.3093 221.127 19.5618 220.327 20.074C219.519 20.5862 218.906 21.3364 218.487 22.3391C218.069 23.3418 217.852 24.5248 217.852 25.8954C217.852 27.266 218.062 28.4347 218.487 29.3941C218.906 30.3607 219.519 31.1109 220.327 31.6592C221.135 32.2002 222.101 32.4743 223.219 32.4743Z" fill="white"/>
<path d="M254.022 40.4743C251.67 40.4743 249.571 39.854 247.732 38.606C245.892 37.358 244.442 35.6412 243.389 33.4482C242.336 31.2552 241.809 28.7376 241.809 25.8954C241.809 23.0532 242.343 20.5357 243.418 18.3427C244.485 16.1497 245.957 14.4184 247.811 13.156C249.672 11.8936 251.793 11.2588 254.181 11.2588C255.407 11.2588 256.583 11.432 257.708 11.7854C258.833 12.1389 259.843 12.6294 260.738 13.257C261.632 13.8918 262.39 14.6276 263.003 15.4716C263.616 16.3156 264.013 17.2101 264.186 18.1551L261.921 18.7899V0.936035H271.768V39.8972H262.873L262.188 33.6285L264.135 33.9964C263.991 34.9126 263.623 35.7494 263.032 36.5212C262.433 37.2931 261.69 37.9784 260.796 38.5771C259.901 39.1759 258.862 39.6375 257.686 39.9694C256.511 40.3012 255.291 40.4671 254.029 40.4671L254.022 40.4743ZM256.814 32.4743C257.939 32.4743 258.898 32.2002 259.706 31.6592C260.514 31.1182 261.127 30.3607 261.546 29.3941C261.964 28.4275 262.181 27.2588 262.181 25.8954C262.181 24.5321 261.971 23.3418 261.546 22.3391C261.12 21.3364 260.507 20.5862 259.706 20.074C258.898 19.5618 257.932 19.3093 256.814 19.3093C255.695 19.3093 254.722 19.5618 253.921 20.074C253.113 20.5862 252.5 21.3364 252.081 22.3391C251.663 23.3418 251.447 24.5248 251.447 25.8954C251.447 27.266 251.656 28.4347 252.081 29.3941C252.5 30.3607 253.113 31.1109 253.921 31.6592C254.729 32.2002 255.695 32.4743 256.814 32.4743Z" fill="white"/>
<path d="M280.452 52.0089L287.19 36.1099L287.298 40.4309L273.975 11.843H284.925L289.614 23.0026C289.996 23.8827 290.342 24.7483 290.638 25.6068C290.934 26.4652 291.158 27.2803 291.295 28.0522L290.191 28.8962C290.328 28.4418 290.544 27.8069 290.826 26.999C291.107 26.1911 291.425 25.2605 291.771 24.2073L296.034 11.8358H307.035L294.873 39.8971L289.975 52.0089H280.445H280.452Z" fill="white"/>
</svg>
