<svg width="29" height="31" viewBox="0 0 29 31" fill="none" xmlns="http://www.w3.org/2000/svg">
<path d="M28.1198 27.1642L22.6383 21.6827C24.6822 19.391 25.9519 16.3561 25.9519 13.0424C25.9519 5.88856 20.1298 0.0664062 12.976 0.0664062C5.82216 0.0664062 0 5.88856 0 13.0424C0 20.1962 5.82216 26.0184 12.976 26.0184C15.5154 26.0184 17.8691 25.2751 19.8511 24.0363L25.5494 29.7346C25.89 30.0753 26.3545 30.2611 26.8191 30.2611C27.2836 30.2611 27.7481 30.0753 28.0888 29.7346C28.8321 29.0223 28.8321 27.8765 28.1198 27.1642ZM3.62336 13.0424C3.62336 7.90154 7.80417 3.68977 12.976 3.68977C18.1478 3.68977 22.2976 7.90154 22.2976 13.0424C22.2976 18.1832 18.1168 22.395 12.976 22.395C7.83513 22.395 3.62336 18.2142 3.62336 13.0424Z" fill="#FA9C29"/>
</svg>
