<svg width="44" height="52" viewBox="0 0 44 52" fill="none" xmlns="http://www.w3.org/2000/svg">
<path d="M30.8757 13.6005L30.8757 13.6001C31.7002 8.52219 28.2518 3.7378 23.1731 2.91298L30.8757 13.6005ZM30.8757 13.6005C30.052 18.6788 25.2669 22.1277 20.1885 21.3032L20.1881 21.3031M30.8757 13.6005L20.1881 21.3031M20.1881 21.3031C15.1098 20.4794 11.6609 15.6944 12.4855 10.616M20.1881 21.3031L12.4855 10.616M12.4855 10.616C13.31 5.53833 18.0943 2.08942 23.1727 2.91292L12.4855 10.616Z" stroke="#59219E" stroke-width="5"/>
<path d="M35.1578 36.1719C38.635 39.649 40.6299 44.3316 40.7354 49.2369H2.62942C2.73498 44.3316 4.72989 39.649 8.20705 36.1719C11.7811 32.5979 16.6286 30.5898 21.6824 30.5898C26.7363 30.5898 31.5838 32.5979 35.1578 36.1719Z" stroke="#59219E" stroke-width="5"/>
</svg>
