<svg width="22" height="27" viewBox="0 0 22 27" fill="none" xmlns="http://www.w3.org/2000/svg">
<path d="M11.9944 1.00828C15.2567 1.53795 17.4722 4.61132 16.9425 7.87362C16.4134 11.1359 13.3395 13.3514 10.0772 12.8218C6.81487 12.2926 4.59935 9.21874 5.12903 5.95643C5.6587 2.69465 8.73206 0.479131 11.9944 1.00828Z" fill="white"/>
<path d="M21.9551 25.9272C21.954 26.2078 21.8425 26.4763 21.6442 26.6746C21.4458 26.873 21.1768 26.985 20.8968 26.9855H1.17744C0.896902 26.9845 0.628402 26.873 0.430036 26.6746C0.23167 26.4763 0.119664 26.2073 0.119141 25.9272C0.119141 23.0318 1.26956 20.2547 3.31707 18.2072C5.36458 16.1597 8.1417 15.0093 11.0371 15.0093C13.9325 15.0093 16.7096 16.1597 18.7572 18.2072C20.8047 20.2547 21.9551 23.0318 21.9551 25.9272Z" fill="white"/>
</svg>
