<svg width="32" height="27" viewBox="0 0 32 27" fill="none" xmlns="http://www.w3.org/2000/svg">
<path d="M12.8034 0.726543C16.0658 1.25622 18.2813 4.32958 17.7516 7.59188C17.2225 10.8542 14.1486 13.0697 10.8863 12.54C7.62396 12.0109 5.40844 8.937 5.93811 5.6747C6.46778 2.41291 9.54114 0.197393 12.8034 0.726543Z" fill="#59219E"/>
<path d="M22.7637 25.6455C22.7626 25.926 22.6511 26.1945 22.4528 26.3929C22.2544 26.5913 21.9854 26.7033 21.7054 26.7038H1.98603C1.7055 26.7028 1.437 26.5913 1.23863 26.3929C1.04026 26.1945 0.928258 25.9255 0.927734 25.6455C0.927734 22.7501 2.07815 19.973 4.12566 17.9255C6.17317 15.878 8.9503 14.7275 11.8457 14.7275C14.7411 14.7275 17.5182 15.878 19.5657 17.9255C21.6133 19.973 22.7637 22.7501 22.7637 25.6455Z" fill="#59219E"/>
<mask id="path-3-outside-1_1133_10246" maskUnits="userSpaceOnUse" x="13.5508" y="8.53223" width="19" height="19" fill="black">
<rect fill="white" x="13.5508" y="8.53223" width="19" height="19"/>
<path fill-rule="evenodd" clip-rule="evenodd" d="M24.6855 10.5322H20.8418V15.8232H15.5508V19.667H20.8418V24.957H24.6855V19.667H29.9756V15.8232H24.6855V10.5322Z"/>
</mask>
<path fill-rule="evenodd" clip-rule="evenodd" d="M24.6855 10.5322H20.8418V15.8232H15.5508V19.667H20.8418V24.957H24.6855V19.667H29.9756V15.8232H24.6855V10.5322Z" fill="#59219E"/>
<path d="M20.8418 10.5322V8.53223H18.8418V10.5322H20.8418ZM24.6855 10.5322H26.6855V8.53223H24.6855V10.5322ZM20.8418 15.8232V17.8232H22.8418V15.8232H20.8418ZM15.5508 15.8232V13.8232H13.5508V15.8232H15.5508ZM15.5508 19.667H13.5508V21.667H15.5508V19.667ZM20.8418 19.667H22.8418V17.667H20.8418V19.667ZM20.8418 24.957H18.8418V26.957H20.8418V24.957ZM24.6855 24.957V26.957H26.6855V24.957H24.6855ZM24.6855 19.667V17.667H22.6855V19.667H24.6855ZM29.9756 19.667V21.667H31.9756V19.667H29.9756ZM29.9756 15.8232H31.9756V13.8232H29.9756V15.8232ZM24.6855 15.8232H22.6855V17.8232H24.6855V15.8232ZM20.8418 12.5322H24.6855V8.53223H20.8418V12.5322ZM22.8418 15.8232V10.5322H18.8418V15.8232H22.8418ZM15.5508 17.8232H20.8418V13.8232H15.5508V17.8232ZM17.5508 19.667V15.8232H13.5508V19.667H17.5508ZM20.8418 17.667H15.5508V21.667H20.8418V17.667ZM22.8418 24.957V19.667H18.8418V24.957H22.8418ZM24.6855 22.957H20.8418V26.957H24.6855V22.957ZM22.6855 19.667V24.957H26.6855V19.667H22.6855ZM29.9756 17.667H24.6855V21.667H29.9756V17.667ZM27.9756 15.8232V19.667H31.9756V15.8232H27.9756ZM24.6855 17.8232H29.9756V13.8232H24.6855V17.8232ZM22.6855 10.5322V15.8232H26.6855V10.5322H22.6855Z" fill="#CCBDE3" mask="url(#path-3-outside-1_1133_10246)"/>
</svg>
