<svg width="23" height="27" viewBox="0 0 23 27" fill="none" xmlns="http://www.w3.org/2000/svg">
<path d="M12.6159 0.754619C15.8782 1.28429 18.0937 4.35765 17.564 7.61996C17.0349 10.8823 13.961 13.0978 10.6987 12.5681C7.4364 12.039 5.22088 8.96508 5.75055 5.70277C6.28022 2.44099 9.35358 0.225469 12.6159 0.754619Z" fill="#FA9C29"/>
<path d="M22.5762 25.6736C22.5751 25.9541 22.4636 26.2226 22.2653 26.421C22.0669 26.6194 21.7979 26.7314 21.5179 26.7319H1.79853C1.518 26.7308 1.2495 26.6194 1.05113 26.421C0.852764 26.2226 0.740758 25.9536 0.740234 25.6736C0.740234 22.7782 1.89065 20.0011 3.93816 17.9535C5.98567 15.906 8.7628 14.7556 11.6582 14.7556C14.5536 14.7556 17.3307 15.906 19.3782 17.9535C21.4258 20.0011 22.5762 22.7782 22.5762 25.6736Z" fill="#FA9C29"/>
</svg>
