<svg width="23" height="27" viewBox="0 0 23 27" fill="none" xmlns="http://www.w3.org/2000/svg">
<path d="M12.7917 0.0878712C16.054 0.617544 18.2696 3.69091 17.7399 6.95321C17.2107 10.2155 14.1368 12.431 10.8745 11.9014C7.61224 11.3722 5.39672 8.29833 5.92639 5.03602C6.45606 1.77424 9.52943 -0.441279 12.7917 0.0878712Z" fill="#FA9C29"/>
<path d="M22.752 25.0059C22.7509 25.2864 22.6394 25.5549 22.4411 25.7533C22.2427 25.9516 21.9737 26.0636 21.6937 26.0642H1.97432C1.69378 26.0631 1.42528 25.9516 1.22691 25.7533C1.02855 25.5549 0.916539 25.2859 0.916016 25.0059C0.916016 22.1104 2.06643 19.3333 4.11394 17.2858C6.16146 15.2383 8.93858 14.0879 11.834 14.0879C14.7294 14.0879 17.5065 15.2383 19.554 17.2858C21.6015 19.3333 22.752 22.1104 22.752 25.0059Z" fill="#FA9C29"/>
</svg>
