<svg width="31" height="31" viewBox="0 0 31 31" fill="none" xmlns="http://www.w3.org/2000/svg">
<path fill-rule="evenodd" clip-rule="evenodd" d="M0 9.39203V21.3931C0 21.7539 0.150545 22.1152 0.451096 22.3856L8.99343 30.0559C9.2343 30.2968 9.56496 30.4468 9.92573 30.4468H20.1827C20.4832 30.4468 20.8144 30.3263 21.0548 30.086L29.5971 22.4158C29.8976 22.1749 30.1084 21.8141 30.1084 21.3931V9.39203C30.1084 9.03126 29.9579 8.66995 29.6573 8.39951L21.1155 0.729257C20.8746 0.488386 20.544 0.338379 20.1832 0.338379H9.92627C9.59561 0.338379 9.29452 0.458815 9.02354 0.66904L0.511314 8.33929C0.180654 8.61027 0 8.97104 0 9.39203ZM9.38485 12.5502C8.84343 12.0389 8.84343 11.1668 9.38485 10.655L10.3172 9.72269C10.8285 9.18127 11.7005 9.18127 12.2124 9.72269L15.04 12.5502L17.8976 9.72269C18.4089 9.18127 19.2514 9.18127 19.7929 9.72269L20.7252 10.655C21.2365 11.1663 21.2365 12.0384 20.7252 12.5502L17.8976 15.3778L20.7252 18.2355C21.2365 18.7468 21.2365 19.5893 20.7252 20.1307L19.7929 21.063C19.2514 21.5743 18.4095 21.5743 17.8976 21.063L15.04 18.2355L12.2124 21.063C11.7011 21.5743 10.829 21.5743 10.3172 21.063L9.38485 20.1307C8.84343 19.5893 8.84343 18.7473 9.38485 18.2355L12.2124 15.3778L9.38485 12.5502Z" fill="white"/>
</svg>
