<svg width="31" height="31" viewBox="0 0 31 31" fill="none" xmlns="http://www.w3.org/2000/svg">
<path fill-rule="evenodd" clip-rule="evenodd" d="M0.744141 9.36517V21.3663C0.744141 21.727 0.894685 22.0884 1.19524 22.3588L9.73757 30.029C9.97844 30.2699 10.3091 30.4199 10.6699 30.4199H20.9268C21.2274 30.4199 21.5586 30.2995 21.7989 30.0592L30.3412 22.3889C30.6418 22.148 30.8525 21.7873 30.8525 21.3663V9.36517C30.8525 9.0044 30.702 8.6431 30.4014 8.37265L21.8596 0.702402C21.6188 0.46153 21.2881 0.311523 20.9273 0.311523H10.6704C10.3398 0.311523 10.0387 0.431959 9.76768 0.642184L1.25545 8.31244C0.924794 8.58342 0.744141 8.94419 0.744141 9.36517ZM10.129 12.5234C9.58757 12.0121 9.58757 11.14 10.129 10.6281L11.0613 9.69583C11.5726 9.15441 12.4447 9.15441 12.9565 9.69583L15.7841 12.5234L18.6418 9.69583C19.1531 9.15441 19.9956 9.15441 20.537 9.69583L21.4693 10.6281C21.9806 11.1395 21.9806 12.0115 21.4693 12.5234L18.6418 15.3509L21.4693 18.2086C21.9806 18.7199 21.9806 19.5624 21.4693 20.1038L20.537 21.0361C19.9956 21.5475 19.1536 21.5475 18.6418 21.0361L15.7841 18.2086L12.9565 21.0361C12.4452 21.5475 11.5731 21.5475 11.0613 21.0361L10.129 20.1038C9.58757 19.5624 9.58757 18.7204 10.129 18.2086L12.9565 15.3509L10.129 12.5234Z" fill="#FF0000"/>
</svg>
