<svg width="31" height="31" viewBox="0 0 31 31" fill="none" xmlns="http://www.w3.org/2000/svg">
<path fill-rule="evenodd" clip-rule="evenodd" d="M0.556641 9.33295V21.334C0.556641 21.6948 0.707185 22.0561 1.00774 22.3266L9.55007 29.9968C9.79094 30.2377 10.1216 30.3877 10.4824 30.3877H20.7393C21.0399 30.3877 21.3711 30.2673 21.6114 30.0269L30.1537 22.3567C30.4543 22.1158 30.665 21.755 30.665 21.334V9.33295C30.665 8.97218 30.5145 8.61087 30.2139 8.34043L21.6721 0.670175C21.4313 0.429304 21.1006 0.279297 20.7398 0.279297H10.4829C10.1523 0.279297 9.85116 0.399733 9.58018 0.609958L1.06795 8.28021C0.737294 8.55119 0.556641 8.91196 0.556641 9.33295ZM9.94149 12.4912C9.40007 11.9798 9.40007 11.1078 9.94149 10.5959L10.8738 9.66361C11.3851 9.12218 12.2572 9.12218 12.769 9.66361L15.5966 12.4912L18.4543 9.66361C18.9656 9.12218 19.8081 9.12218 20.3495 9.66361L21.2818 10.5959C21.7931 11.1072 21.7931 11.9793 21.2818 12.4912L18.4543 15.3187L21.2818 18.1764C21.7931 18.6877 21.7931 19.5302 21.2818 20.0716L20.3495 21.0039C19.8081 21.5152 18.9661 21.5152 18.4543 21.0039L15.5966 18.1764L12.769 21.0039C12.2577 21.5152 11.3856 21.5152 10.8738 21.0039L9.94149 20.0716C9.40007 19.5302 9.40007 18.6882 9.94149 18.1764L12.769 15.3187L9.94149 12.4912Z" fill="white"/>
</svg>
